o horse
usemtl mob_horse
s off

v -0.33875 1 -0
vt 0.5 0.742187
vn -1 -0 -5.77529e-015
v -0.33875 1 -0.25
vt 0.46875 0.742187
v -0.33875 0.5 -0.25
vt 0.46875 0.679687
v -0.33875 0.5 -0
vt 0.5 0.679687
f 1/1/1 2/2/1 3/3/1 4/4/1 

vn 0 1 -0
v -0.15125 1 1.08287e-015
vt 0.523437 0.742187
v -0.15125 1 -0.25
vt 0.523437 0.773438
vt 0.5 0.773438
f 1/1/2 5/5/2 6/6/2 2/7/2 

vt 0.523437 0.742188
vn -5.77529e-015 -0 1
vt 0.5 0.742188
vt 0.5 0.679688
v -0.15125 0.5 1.08287e-015
vt 0.523437 0.679688
f 5/8/3 1/9/3 4/10/3 7/11/3 

vt 0.546875 0.742188
vn 0 -1 -0
v -0.15125 0.5 -0.25
vt 0.546875 0.773438
f 7/12/4 4/8/4 3/6/4 8/13/4 

vt 0.578125 0.679688
vn 6.13625e-015 1.35358e-016 -1
vt 0.578125 0.742188
vt 0.554687 0.742188
vt 0.554687 0.679688
f 3/14/5 2/15/5 6/16/5 8/17/5 

vn 1 -7.41292e-031 5.77529e-015
vt 0.523437 0.679687
vt 0.554687 0.679687
f 6/16/6 5/8/6 7/18/6 8/19/6 

v -0.33875 0.1875 -0.03125
vt 0.367187 0.617188
vn -3.85019e-015 0 1
v -0.15125 0.1875 -0.03125
vt 0.390625 0.617188
v -0.15125 0.5 -0.03125
vt 0.390625 0.65625
v -0.33875 0.5 -0.03125
vt 0.367187 0.65625
f 9/20/7 10/21/7 11/22/7 12/23/7 

vt 0.414062 0.65625
vn 0 -1 0
v -0.33875 0.1875 -0.21875
vt 0.390625 0.679688
v -0.15125 0.1875 -0.21875
vt 0.414062 0.679688
f 10/24/8 9/22/8 13/25/8 14/26/8 

v -0.33875 0.5 -0.21875
vt 0.34375 0.65625
vn -1 0 -3.85019e-015
vt 0.34375 0.617188
f 15/27/9 13/28/9 9/20/9 12/23/9 

vt 0.4375 0.617188
vn 4.60219e-015 4.51195e-016 -1
vt 0.4375 0.65625
v -0.15125 0.5 -0.21875
vt 0.414063 0.65625
vt 0.414063 0.617188
f 13/29/10 15/30/10 16/31/10 14/32/10 

vn 1.9251e-015 1 -1.9251e-015
vt 0.367187 0.679688
f 12/23/11 11/22/11 16/25/11 15/33/11 

vn 1 -1.75967e-030 3.85019e-015
f 14/32/12 16/31/12 11/22/12 10/21/12 

v -0.37 0 -2.25597e-017
vt 0.375 0.546875
vn -4.33147e-015 2.82397e-031 1
v -0.12 0 1.06031e-015
vt 0.40625 0.546875
v -0.12 0.1875 1.06031e-015
vt 0.40625 0.570313
v -0.37 0.1875 -2.25597e-017
vt 0.375 0.570313
f 17/34/13 18/35/13 19/36/13 20/37/13 

vt 0.4375 0.570313
v -0.37 0 -0.25
vt 0.40625 0.601563
v -0.12 0 -0.25
vt 0.4375 0.601563
f 18/38/8 17/36/8 21/39/8 22/40/8 

v -0.37 0.1875 -0.25
vt 0.34375 0.570312
vn -1 0 -2.88765e-015
vt 0.34375 0.546875
vt 0.375 0.570312
f 23/41/14 21/42/14 17/34/14 20/43/14 

vt 0.4375 0.546875
vn 4.33147e-015 -2.82397e-031 -1
vt 0.46875 0.546875
vt 0.46875 0.570312
v -0.12 0.1875 -0.25
vt 0.4375 0.570312
f 22/44/15 21/45/15 23/46/15 24/47/15 

vt 0.375 0.601563
f 24/39/2 23/48/2 20/37/2 19/36/2 

vn 1 0 2.88765e-015
vt 0.40625 0.570312
f 22/44/16 24/47/16 19/49/16 18/35/16 

v 0.10875 0.5 6.31672e-016
vt 0.375 0.679688
vn -4.33147e-015 0 1
v 0.29625 0.5 1.44382e-015
vt 0.398437 0.679688
v 0.29625 1 1.44382e-015
vt 0.398437 0.742188
v 0.10875 1 6.31672e-016
vt 0.375 0.742188
f 25/50/17 26/51/17 27/52/17 28/53/17 

v 0.10875 0.5 -0.25
vt 0.398437 0.773438
v 0.29625 0.5 -0.25
vt 0.421875 0.773438
vt 0.421875 0.742188
f 25/52/8 29/54/8 30/55/8 26/56/8 

v 0.10875 1 -0.25
vt 0.34375 0.742188
vn -1 0 -4.33147e-015
vt 0.34375 0.679688
f 31/57/18 29/58/18 25/50/18 28/53/18 

vt 0.429688 0.679688
vn 4.33147e-015 0 -1
vt 0.453125 0.679688
vt 0.453125 0.742187
v 0.29625 1 -0.25
vt 0.429688 0.742187
f 30/59/19 29/60/19 31/61/19 32/62/19 

vt 0.398438 0.773438
vt 0.375 0.773438
vt 0.398438 0.742188
f 32/63/2 31/64/2 28/53/2 27/65/2 

vt 0.429688 0.679687
vn 1 -7.94242e-032 4.33147e-015
vt 0.398437 0.742187
vt 0.398437 0.679687
f 30/66/20 32/62/20 27/67/20 26/68/20 

v 0.0775 0 3.38396e-016
v 0.3275 0 1.42126e-015
v 0.3275 0.1875 1.42126e-015
v 0.0775 0.1875 3.38396e-016
f 33/34/13 34/35/13 35/36/13 36/37/13 

v 0.0775 0 -0.25
v 0.3275 0 -0.25
f 34/38/8 33/36/8 37/39/8 38/40/8 

v 0.0775 0.1875 -0.25
f 39/41/14 37/42/14 33/34/14 36/43/14 

v 0.3275 0.1875 -0.25
f 38/44/15 37/45/15 39/46/15 40/47/15 

f 40/39/2 39/48/2 36/37/2 35/36/2 

f 38/44/16 40/47/16 35/49/16 34/35/16 

v 0.10875 0.1875 -0.03125
v 0.29625 0.1875 -0.03125
v 0.29625 0.5 -0.03125
v 0.10875 0.5 -0.03125
f 41/20/7 42/21/7 43/22/7 44/23/7 

v 0.10875 0.1875 -0.21875
v 0.29625 0.1875 -0.21875
f 42/24/8 41/22/8 45/25/8 46/26/8 

v 0.10875 0.5 -0.21875
f 47/27/9 45/28/9 41/20/9 44/23/9 

v 0.29625 0.5 -0.21875
f 45/29/10 47/30/10 48/31/10 46/32/10 

f 44/23/11 43/22/11 48/25/11 47/33/11 

f 46/32/12 48/31/12 43/22/12 42/21/12 

v 0.0725 -1.19115e-014 -1.1925
vt 0.640625 0.546875
vn 4.22694e-062 2.88765e-015 1
v 0.3225 -1.19115e-014 -1.1925
vt 0.671875 0.546875
v 0.3225 0.1875 -1.1925
vt 0.671875 0.570313
v 0.0725 0.1875 -1.1925
vt 0.640625 0.570313
f 49/69/21 50/70/21 51/71/21 52/72/21 

vt 0.703125 0.570313
vn 0 -1 2.88765e-015
v 0.0725 -1.26334e-014 -1.4425
vt 0.671875 0.601563
v 0.3225 -1.26334e-014 -1.4425
vt 0.703125 0.601563
f 50/73/22 49/71/22 53/74/22 54/75/22 

v 0.0725 0.1875 -1.4425
vt 0.609375 0.570313
vn -1 0 -0
vt 0.609375 0.546875
f 55/76/23 53/77/23 49/69/23 52/72/23 

vt 0.734375 0.546875
vn 4.91802e-015 3.66972e-015 -1
vt 0.734375 0.570313
v 0.3225 0.1875 -1.4425
vt 0.703125 0.546875
f 53/78/24 55/79/24 56/73/24 54/80/24 

vt 0.640625 0.570312
vn 1.44382e-015 1 -4.33147e-015
vt 0.671875 0.570312
vt 0.671875 0.601562
vt 0.640625 0.601562
f 52/81/25 51/82/25 56/83/25 55/84/25 

vn 1 0 -0
f 54/80/26 56/73/26 51/71/26 50/70/26 

v 0.0725 0.5 -1.16125
vt 0.648437 0.664063
vn -4.01093e-062 4.65232e-015 1
v 0.3225 0.5 -1.16125
vt 0.679687 0.664063
v 0.3225 1.0625 -1.16125
vt 0.679687 0.734375
v 0.0725 1.0625 -1.16125
vt 0.648437 0.734375
f 57/85/27 58/86/27 59/87/27 60/88/27 

vt 0.679688 0.734375
vn 0 -1 4.62023e-015
v 0.0725 0.5 -1.47375
vt 0.679688 0.773438
v 0.3225 0.5 -1.47375
vt 0.710938 0.773438
vt 0.710938 0.734375
f 57/89/28 61/90/28 62/91/28 58/92/28 

v 0.0725 1.0625 -1.47375
vt 0.609375 0.734375
vt 0.609375 0.664063
vt 0.648438 0.664063
vt 0.648438 0.734375
f 63/93/23 61/94/23 57/95/23 60/96/23 

vt 0.75 0.664063
vn -6.31672e-016 -4.93306e-015 -1
vt 0.75 0.734375
v 0.3225 1.0625 -1.47375
vt 0.71875 0.734375
vt 0.71875 0.664063
f 61/97/29 63/98/29 64/99/29 62/100/29 

vn -3.04989e-030 1 -4.62023e-015
vt 0.679687 0.773437
vt 0.648438 0.773437
f 60/96/30 59/87/30 64/101/30 63/102/30 

f 62/100/26 64/99/26 59/87/26 58/86/26 

v 0.10375 0.1875 -1.22375
vt 0.632812 0.601563
vn -1.21543e-062 3.82613e-015 1
v 0.29125 0.1875 -1.22375
vt 0.65625 0.601563
v 0.29125 0.5 -1.22375
vt 0.65625 0.640625
v 0.10375 0.5 -1.22375
vt 0.632812 0.640625
f 65/103/31 66/104/31 67/105/31 68/106/31 

vn 0 -1 3.85019e-015
v 0.10375 0.1875 -1.41125
vt 0.65625 0.664063
v 0.29125 0.1875 -1.41125
vt 0.679687 0.640625
f 65/105/32 69/107/32 70/86/32 66/108/32 

v 0.10375 0.5 -1.41125
vt 0.609375 0.640625
vt 0.609375 0.601562
vt 0.632812 0.601562
f 71/109/23 69/110/23 65/111/23 68/106/23 

vt 0.703125 0.601562
vn 5.23386e-015 -6.85816e-016 -1
vt 0.703125 0.640625
v 0.29125 0.5 -1.41125
vt 0.679688 0.640625
vt 0.679688 0.601562
f 69/112/33 71/113/33 72/114/33 70/115/33 

vn 2.02071e-029 1 -3.85019e-015
vt 0.632812 0.664063
f 68/106/34 67/105/34 72/107/34 71/116/34 

vt 0.65625 0.601562
f 70/115/26 72/114/26 67/105/26 66/117/26 

v -0.365 -1.26334e-014 -1.1925
v -0.115 -1.26334e-014 -1.1925
v -0.115 0.1875 -1.1925
v -0.365 0.1875 -1.1925
f 73/69/21 74/70/21 75/71/21 76/72/21 

v -0.365 -1.33554e-014 -1.4425
v -0.115 -1.33554e-014 -1.4425
f 74/73/22 73/71/22 77/74/22 78/75/22 

v -0.365 0.1875 -1.4425
f 79/76/23 77/77/23 73/69/23 76/72/23 

v -0.115 0.1875 -1.4425
f 77/78/24 79/79/24 80/73/24 78/80/24 

f 76/81/25 75/82/25 80/83/25 79/84/25 

f 78/80/26 80/73/26 75/71/26 74/70/26 

v -0.115 1.0625 -1.47375
vt 0.859375 0.734375
v -0.115 1.0625 -1.16125
vt 0.820312 0.734375
v -0.115 0.5 -1.16125
vt 0.820312 0.664063
v -0.115 0.5 -1.47375
vt 0.859375 0.664063
f 81/118/26 82/119/26 83/120/26 84/121/26 

v -0.365 1.0625 -1.16125
vt 0.789062 0.734375
vn 2.88765e-015 1 -2.31012e-015
vt 0.820312 0.773437
v -0.365 1.0625 -1.47375
vt 0.789062 0.773437
f 85/122/35 82/119/35 81/123/35 86/124/35 

vn 0 2.24595e-015 1
v -0.365 0.5 -1.16125
vt 0.789062 0.664063
f 82/119/36 85/122/36 87/125/36 83/120/36 

vn -1 0 0
v -0.365 0.5 -1.47375
f 85/122/37 86/98/37 88/97/37 87/125/37 

vt 0.890625 0.664063
vn 2.93277e-015 -1.02271e-015 -1
vt 0.890625 0.734375
f 88/126/38 86/127/38 81/118/38 84/121/38 

vt 0.820313 0.734375
vt 0.820313 0.773438
vt 0.851563 0.773438
vt 0.851563 0.734375
f 87/128/4 88/129/4 84/130/4 83/131/4 

v -0.33375 0.1875 -1.22375
v -0.14625 0.1875 -1.22375
v -0.14625 0.5 -1.22375
v -0.33375 0.5 -1.22375
f 89/103/31 90/104/31 91/105/31 92/106/31 

v -0.33375 0.1875 -1.41125
v -0.14625 0.1875 -1.41125
f 89/105/32 93/107/32 94/86/32 90/108/32 

v -0.33375 0.5 -1.41125
f 95/109/23 93/110/23 89/111/23 92/106/23 

v -0.14625 0.5 -1.41125
f 93/112/33 95/113/33 96/114/33 94/115/33 

f 92/106/34 91/105/34 96/107/34 95/116/34 

f 94/115/26 96/114/26 91/105/26 90/117/26 

v -0.115 1.09904 -1.43279
vt 0.351562 0.859375
vn -9.96504e-016 0.965926 0.258819
v 0.0725 1.09904 -1.43279
vt 0.375 0.859375
v 0.0725 1.16374 -1.67427
vt 0.375 0.890625
v -0.115 1.16374 -1.67427
vt 0.351562 0.890625
f 97/132/39 98/133/39 99/134/39 100/135/39 

vt 0.398437 0.890625
vn -3.719e-015 -0.258819 0.965926
v -0.115 0.676444 -1.54602
vt 0.375 0.945312
v 0.0725 0.676444 -1.54602
vt 0.398437 0.945312
f 98/136/40 97/134/40 101/137/40 102/138/40 

v -0.115 0.741149 -1.7875
vt 0.296875 0.890625
vn -1 -1.06257e-015 -4.13491e-015
vt 0.296875 0.859375
f 103/139/41 101/140/41 97/132/41 100/135/41 

vt 0.453125 0.859375
vn 3.3955e-017 -0.965926 -0.258819
vt 0.453125 0.890625
v 0.0725 0.741149 -1.7875
vt 0.429687 0.890625
vt 0.429687 0.859375
f 101/141/42 103/142/42 104/143/42 102/144/42 

vn 3.719e-015 0.258819 -0.965926
vt 0.351562 0.945312
f 100/135/43 99/134/43 104/137/43 103/145/43 

vn 1 1.06257e-015 4.13491e-015
f 102/144/44 104/143/44 99/134/44 98/133/44 

v -0.08375 1.29632 -1.44463
vt 0.367187 0.960938
vn -7.55866e-016 0.965926 0.258819
v 0.04125 1.29632 -1.44463
vt 0.382812 0.960938
v 0.04125 1.32868 -1.56537
vt 0.382812 0.976563
v -0.08375 1.32868 -1.56537
vt 0.367187 0.976563
f 105/146/45 106/147/45 107/148/45 108/149/45 

v -0.08375 1.11521 -1.49316
vt 0.382812 1
v 0.04125 1.11521 -1.49316
vt 0.398437 1
vt 0.398437 0.976563
f 105/148/40 109/150/40 110/151/40 106/152/40 

v -0.08375 1.14757 -1.6139
vt 0.34375 0.976563
vn -1 -6.59598e-030 -3.85019e-015
vt 0.34375 0.960938
vt 0.367188 0.960938
vt 0.367188 0.976563
f 111/153/46 109/154/46 105/155/46 108/156/46 

vt 0.40625 0.960937
vn 9.36344e-016 -0.965926 -0.258819
vt 0.421875 0.960937
vt 0.421875 0.976562
v 0.04125 1.14757 -1.6139
vt 0.40625 0.976562
f 110/157/47 109/158/47 111/159/47 112/160/47 

vt 0.382813 1
vt 0.367188 1
vt 0.382813 0.976563
f 112/161/43 111/162/43 108/156/43 107/163/43 

vn 1 7.35796e-030 3.85019e-015
vt 0.382813 0.976562
vt 0.382813 0.960937
f 110/157/48 112/160/48 107/164/48 106/165/48 

v -0.115 0.720229 -1.53838
vt 0.242187 0.890625
vn -1.37507e-016 0.996493 0.0836778
v 0.0725 0.720229 -1.53838
vt 0.265625 0.890625
v 0.0725 0.741149 -1.7875
vt 0.265625 0.921875
v -0.115 0.741149 -1.7875
vt 0.242187 0.921875
f 113/166/49 114/167/49 115/168/49 116/169/49 

vn 7.88861e-031 -0.0836778 0.996493
v -0.115 0.284264 -1.57499
vt 0.265625 0.976562
v 0.0725 0.284264 -1.57499
vt 0.289063 0.976562
vt 0.289063 0.921875
f 113/168/50 117/170/50 118/171/50 114/172/50 

v -0.115 0.305183 -1.82411
vt 0.1875 0.921875
vn -1 -1.31692e-029 5.21559e-031
vt 0.1875 0.890625
f 119/173/51 117/174/51 113/166/51 116/169/51 

v 0.0725 0.305183 -1.82411
vn -7.88861e-031 0.0836778 -0.996493
vt 0.242187 0.976562
f 120/170/52 119/175/52 116/169/52 115/168/52 

vt 0.320312 0.890625
vn 1 1.31692e-029 -5.21559e-031
vt 0.320312 0.921875
f 118/176/53 120/177/53 115/168/53 114/167/53 

v -0.14625 1.30508 0.495897
vt 0.226562 0.734375
vn 2.94568e-014 -0.5 0.866025
v 0.10375 1.30508 0.495897
vt 0.257812 0.734375
v 0.10375 1.41333 0.558397
vt 0.257812 0.75
v -0.14625 1.41333 0.558397
vt 0.226562 0.75
f 121/178/54 122/179/54 123/180/54 124/181/54 

vt 0.289063 0.75
vn 2.16573e-015 -0.866025 -0.5
vt 0.257813 0.75
v -0.14625 1.46133 0.225264
vt 0.257813 0.789063
v 0.10375 1.46133 0.225264
vt 0.289063 0.789063
f 122/182/55 121/183/55 125/184/55 126/185/55 

v -0.14625 1.56958 0.287764
vt 0.1875 0.75
vn -1 -1.60264e-014 2.34271e-014
vt 0.1875 0.734375
f 127/186/56 125/187/56 121/178/56 124/181/56 

vt 0.296875 0.734375
vn -2.94568e-014 0.5 -0.866025
vt 0.328125 0.734375
vt 0.328125 0.75
v 0.10375 1.56958 0.287764
vt 0.296875 0.75
f 126/188/57 125/189/57 127/190/57 128/191/57 

vt 0.257812 0.789062
vn -2.16573e-015 0.866025 0.5
vt 0.226562 0.789062
f 128/192/58 127/193/58 124/181/58 123/180/58 

vn 1 1.71815e-014 -2.54277e-014
f 126/188/59 128/191/59 123/180/59 122/179/59 

v -0.08375 1.14863 -0.420626
vt 0.484375 0.84375
vn -2.30734e-015 -0.5 0.866025
v 0.04125 1.14863 -0.420626
vt 0.5 0.84375
v 0.04125 2.01466 0.0793739
vt 0.5 0.96875
v -0.08375 2.01466 0.0793739
vt 0.484375 0.96875
f 129/194/60 130/195/60 131/196/60 132/197/60 

vt 0.515625 0.96875
v -0.08375 1.27363 -0.637133
vt 0.5 1
v 0.04125 1.27363 -0.637133
vt 0.515625 1
f 130/198/55 129/196/55 133/199/55 134/200/55 

v -0.08375 2.13966 -0.137133
vt 0.453125 0.96875
vn -1 -2.16573e-015 -5.80307e-016
vt 0.453125 0.84375
f 135/201/61 133/202/61 129/194/61 132/197/61 

vt 0.53125 0.84375
vn 2.30734e-015 0.5 -0.866025
vt 0.546875 0.84375
vt 0.546875 0.96875
v 0.04125 2.13966 -0.137133
vt 0.53125 0.96875
f 134/203/62 133/204/62 135/205/62 136/206/62 

vt 0.484375 1
f 136/199/58 135/207/58 132/197/58 131/196/58 

vn 1 2.16573e-015 5.80307e-016
f 134/203/63 136/206/63 131/196/63 130/195/63 

v 0.135 1.46133 0.225264
vt 0.09375 0.90625
vn -3.4624e-015 -0.5 0.866025
v 0.135 1.73196 0.381514
vt 0.09375 0.945313
v -0.1775 1.73196 0.381514
vt 0.0546875 0.945313
v -0.1775 1.46133 0.225264
vt 0.0546875 0.90625
f 137/208/64 138/209/64 139/210/64 140/211/64 

v 0.135 1.68008 -0.153622
vt 0.148438 0.90625
vn 1 1.0313e-016 4.15284e-015
v 0.135 1.95071 0.00262827
vt 0.148438 0.945312
vt 0.09375 0.945312
f 141/212/65 142/213/65 138/214/65 137/208/65 

vn 3.02925e-015 0.5 -0.866025
v -0.1775 1.68008 -0.153622
vt 0.1875 0.90625
v -0.1775 1.95071 0.00262827
vt 0.1875 0.945312
f 142/213/66 141/212/66 143/215/66 144/216/66 

vt 0.09375 1
vt 0.132812 1
vt 0.132812 0.945312
f 140/214/55 143/217/55 141/218/55 137/219/55 

vt -1.93595e-015 0.945312
vn -1 -1.0313e-016 -4.15284e-015
vt -1.93595e-015 0.90625
vt 0.0546875 0.945312
f 144/220/67 143/221/67 140/211/67 139/222/67 

vt 0.0546875 1
f 142/217/58 144/223/58 139/210/58 138/209/58 

v -0.14625 1.39771 0.585461
vt 0.234375 0.789063
v 0.10375 1.39771 0.585461
vt 0.265625 0.789063
v 0.10375 1.56009 0.679211
vt 0.265625 0.8125
v -0.14625 1.56009 0.679211
vt 0.234375 0.8125
f 145/224/54 146/225/54 147/226/54 148/227/54 

vt 0.296875 0.8125
v -0.14625 1.58521 0.260701
vt 0.265625 0.859375
v 0.10375 1.58521 0.260701
f 146/228/55 145/226/55 149/229/55 150/140/55 

v -0.14625 1.74759 0.354451
vt 0.1875 0.8125
vn -1 -1.6604e-014 2.44274e-014
vt 0.1875 0.789063
f 151/230/68 149/231/68 145/224/68 148/227/68 

vt 0.3125 0.789063
vt 0.34375 0.789063
vt 0.34375 0.8125
v 0.10375 1.74759 0.354451
vt 0.3125 0.8125
f 150/232/57 149/233/57 151/234/57 152/235/57 

vt 0.234375 0.859375
f 152/229/58 151/236/58 148/227/58 147/226/58 

vt 0.3125 0.789062
vn 1 1.6604e-014 -2.44274e-014
vt 0.265625 0.789062
f 150/237/69 152/235/69 147/226/69 146/238/69 

v -0.14 1.96201 -0.026935
vt -2.19269e-015 0.84375
vn -1 4.74942e-018 -4.33969e-015
v -0.14 1.20424 -0.464435
vt -2.19269e-015 0.734375
v -0.14 0.954235 -0.0314223
vt 0.0625 0.734375
v -0.14 1.71201 0.406078
vt 0.0625 0.84375
f 153/239/70 154/240/70 155/241/70 156/242/70 

v 0.0975 1.20424 -0.464435
vt 0.15625 0.734375
vn 3.05632e-015 0.5 -0.866025
vt 0.1875 0.84375
v 0.0975 1.96201 -0.026935
vt 0.15625 0.84375
f 157/243/71 154/187/71 153/244/71 158/245/71 

v 0.0975 0.954235 -0.0314223
vt 0.125 0.84375
vt 0.09375 0.84375
vt 0.125 0.90625
f 159/246/55 155/247/55 154/208/55 157/248/55 

vn -3.39923e-015 -0.5 0.866025
vt 0.09375 0.734375
v 0.0975 1.71201 0.406078
f 155/241/72 159/249/72 160/247/72 156/242/72 

vn 1 -4.74942e-018 4.33969e-015
f 157/243/73 158/245/73 160/247/73 159/249/73 

vt 0.0625 0.90625
f 158/208/58 153/250/58 156/242/58 160/247/58 

v 0.005 1.84971 0.0525681
vt 0.0078125 0.96875
vn -3.39021e-015 -0.5 0.866025
v 0.13 1.84971 0.0525681
vt 0.0234375 0.96875
v 0.13 2.01209 0.146318
vt 0.0234375 0.992188
v 0.005 2.01209 0.146318
vt 0.0078125 0.992188
f 161/251/74 162/252/74 163/253/74 164/254/74 

vt 0.0234375 1
v 0.005 1.88096 -0.00155844
v 0.13 1.88096 -0.00155844
vt 0.0390625 0.992188
vt 0.0390625 1
f 161/255/55 165/253/55 166/256/55 162/257/55 

v 0.005 2.04334 0.0921916
vt -2.24777e-015 0.992187
vn -1 -1.80478e-016 -4.01887e-015
vt -2.24777e-015 0.96875
vt 0.0078125 0.992187
f 167/258/75 165/259/75 161/251/75 164/260/75 

vt 0.046875 0.96875
vn 3.29997e-015 0.5 -0.866025
vt 0.046875 0.992187
v 0.13 2.04334 0.0921916
vt 0.03125 0.992187
vt 0.03125 0.96875
f 165/261/76 167/262/76 168/263/76 166/264/76 

vt 0.0078125 1
f 164/254/58 163/253/58 168/255/58 167/265/58 

vn 1 2.37595e-028 4.33147e-015
vt 0.03125 0.992188
f 166/264/77 168/266/77 163/253/77 162/252/77 

v -0.1725 1.84971 0.0525681
v -0.0475 1.84971 0.0525681
v -0.0475 2.01209 0.146318
v -0.1725 2.01209 0.146318
f 169/251/74 170/252/74 171/253/74 172/254/74 

v -0.1725 1.88096 -0.00155844
v -0.0475 1.88096 -0.00155844
f 169/255/55 173/253/55 174/256/55 170/257/55 

v -0.1725 2.04334 0.0921916
f 175/258/75 173/259/75 169/251/75 172/260/75 

v -0.0475 2.04334 0.0921916
f 173/261/76 175/262/76 176/263/76 174/264/76 

f 172/254/58 171/253/58 176/255/58 175/265/58 

f 174/264/77 176/266/77 171/253/77 170/252/77 

v 0.29125 1.3125 -0.005
vt 0.265625 0.546875
vn 9.24047e-015 -5.77529e-016 1
v -0.33375 1.3125 -0.005
vt 0.1875 0.546875
v -0.33375 0.6875 -0.005
vt 0.1875 0.46875
v 0.29125 0.6875 -0.005
vt 0.265625 0.46875
f 177/267/78 178/268/78 179/269/78 180/270/78 

v -0.33375 1.3125 -1.505
vn -4.39783e-030 1 -4.81274e-016
v 0.29125 1.3125 -1.505
vt 0.265625 0.734375
f 181/187/79 178/268/79 177/267/79 182/271/79 

vn -1 1.44382e-016 9.08405e-015
vt -1.75554e-015 0.546875
v -0.33375 0.6875 -1.505
vt -1.60288e-015 0.46875
f 178/268/80 181/272/80 183/273/80 179/269/80 

vt 0.53125 0.46875
vn -9.38485e-015 -1.29944e-015 -1
vt 0.53125 0.546875
vt 0.453125 0.546875
v 0.29125 0.6875 -1.505
vt 0.453125 0.46875
f 183/274/81 181/275/81 182/276/81 184/277/81 

vn 1 5.77529e-016 -9.38485e-015
f 182/276/82 177/267/82 180/270/82 184/277/82 

vt 0.34375 0.734375
f 179/267/4 183/271/4 184/278/4 180/42/4 

