o ironGolem
usemtl mob_irongolem
s off

v 0.5 2.03125 -0.5
vt 0.225525 -0.313499
vn 2.30651e-013 1 -0
v -0.625 2.03125 -0.5
vt 0.0866361 -0.313499
v -0.625 2.03125 0.1875
vt 0.0866361 -0.398375
v 0.5 2.03125 0.1875
vt 0.225525 -0.398375
f 1/1/1 2/2/1 3/3/1 4/4/1 

vt 0.45236 1.60084
vn 0 -0 -1
vt 0.313471 1.60084
v 0.5 1.28125 -0.5
vt 0.313471 1.50825
v -0.625 1.28125 -0.5
vt 0.45236 1.50825
f 2/5/2 1/6/2 5/7/2 6/8/2 

vt 2.31168 -0.399206
vn 1 -2.30651e-013 -0
vt 2.2268 -0.399206
v 0.5 1.28125 0.1875
vt 2.2268 -0.491798
vt 2.31168 -0.491798
f 1/9/3 4/10/3 7/11/3 5/12/3 

vt 0.224935 1.60068
vn 0 0 1
vt 0.0860464 1.60068
v -0.625 1.28125 0.1875
vt 0.0860464 1.50809
vt 0.224935 1.50809
f 4/13/4 3/14/4 8/15/4 7/16/4 

vt 2.08566 1.60056
vn -1 2.30651e-013 -0
vt 2.00078 1.60056
vt 2.00078 1.50797
vt 2.08566 1.50797
f 3/17/5 2/18/5 6/19/5 8/20/5 

vt 0.227345 1.68665
vn -2.30651e-013 -1 -0
vt 0.366234 1.68665
vt 0.366234 1.60177
vt 0.227345 1.60177
f 6/21/6 5/22/6 7/23/6 8/24/6 

v -0.5 1 -0.3125
vt -0.625122 0.960645
vn 2.3056e-013 1 -0
v -0.5 1 -9.818e-014
vt -0.625122 0.999225
v -0.125 1 -9.818e-014
vt -0.671419 0.999225
v -0.125 1 -0.3125
vt -0.671419 0.960645
f 9/25/7 10/26/7 11/27/7 12/28/7 

vt 0.328089 -0.0397591
vn -1 2.3056e-013 -0
vt 0.289509 -0.0397591
v -0.5 1.15235e-013 -0.3125
vt 0.289509 -0.163216
v -0.5 1.15235e-013 -9.818e-014
vt 0.328089 -0.163216
f 10/29/8 9/30/8 13/31/8 14/32/8 

vt 0.46004 -0.0400147
vn 0 0 -1
vt 0.413744 -0.0400147
v -0.125 2.90569e-014 -0.3125
vt 0.413744 -0.163472
vt 0.46004 -0.163472
f 9/33/9 12/34/9 15/35/9 13/36/9 

vt 2.42196 -0.0393822
vn 1 -2.3056e-013 -0
vt 2.38338 -0.0393822
v -0.125 2.90569e-014 -9.818e-014
vt 2.38338 -0.162839
vt 2.42196 -0.162839
f 12/37/10 11/38/10 16/39/10 15/40/10 

vt 2.37483 -0.0398487
vn 0 -0 1
vt 2.32853 -0.0398487
vt 2.32853 -0.163306
vt 2.37483 -0.163306
f 11/41/11 10/42/11 14/43/11 16/44/11 

vt 1.42166 0.961045
vn -2.3056e-013 -1 -0
vt 1.42166 0.999625
vt 1.37536 0.999625
vt 1.37536 0.961045
f 14/45/12 13/46/12 15/47/12 16/48/12 

v 0.5 0.1875 0.03125
vt 0.515436 0.267144
v 0.75 0.1875 0.03125
vt 0.5463 0.267144
v 0.75 2.0625 0.03125
vt 0.5463 0.498625
v 0.5 2.0625 0.03125
vt 0.515436 0.498625
f 17/49/4 18/50/4 19/51/4 20/52/4 

vt 0.578009 0.500274
vn -2.27402e-013 -1 -0
vt 0.547145 0.500274
v 0.5 0.1875 -0.34375
vt 0.547145 0.546571
v 0.75 0.1875 -0.34375
vt 0.578009 0.546571
f 18/53/13 17/54/13 21/55/13 22/56/13 

vt 1.51528 -0.733263
vn -1 2.27402e-013 -0
vt 1.51528 -0.501782
v 0.5 2.0625 -0.34375
vt 1.46899 -0.501782
vt 1.46899 -0.733263
f 17/57/14 20/58/14 23/59/14 21/60/14 

vt 0.515709 -0.500124
vn 2.27402e-013 1 -0
vt 0.546573 -0.500124
v 0.75 2.0625 -0.34375
vt 0.546573 -0.453828
vt 0.515709 -0.453828
f 20/61/15 19/62/15 24/63/15 23/64/15 

vt 0.547008 0.499091
vn 1 -2.27402e-013 -0
vt 0.547008 0.267609
vt 0.593304 0.267609
vt 0.593304 0.499091
f 19/65/16 18/66/16 22/67/16 24/68/16 

vt -0.406781 0.267286
vt -0.375916 0.267286
vt -0.375916 0.498767
vt -0.406781 0.498767
f 22/69/9 21/70/9 23/71/9 24/72/9 

v 2.30064e-013 1 -0.3125
vt -0.445245 -1.04006
v 2.30064e-013 1 -9.818e-014
vt -0.445245 -1.00148
v 0.375 1 -9.818e-014
vt -0.491541 -1.00148
v 0.375 1 -0.3125
vt -0.491541 -1.04006
f 25/73/7 26/74/7 27/75/7 28/76/7 

vt 1.50804 1.95984
vt 1.46946 1.95984
v -1.35358e-016 0 -0.3125
vt 1.46946 1.83638
v -1.35358e-016 0 -9.818e-014
vt 1.50804 1.83638
f 26/77/8 25/78/8 29/79/8 30/80/8 

vt 1.64004 -0.0395675
vt 1.59374 -0.0395675
v 0.375 -8.64489e-014 -0.3125
vt 1.59374 -0.163024
vt 1.64004 -0.163024
f 25/81/9 28/82/9 31/83/9 29/84/9 

vt 0.595631 -0.0393078
vt 0.557051 -0.0393078
v 0.375 -8.64489e-014 -9.818e-014
vt 0.557051 -0.162765
vt 0.595631 -0.162765
f 28/85/10 27/86/10 32/87/10 31/88/10 

vt 0.553913 1.96067
vt 0.507617 1.96067
vt 0.507617 1.83721
vt 0.553913 1.83721
f 27/89/11 26/90/11 30/91/11 32/92/11 

vt 1.60134 -0.0386102
vt 1.60134 -2.99434e-005
vt 1.55505 -2.99434e-005
vt 1.55505 -0.0386102
f 30/93/12 29/94/12 31/95/12 32/96/12 

v -0.875 0.1875 0.03125
vt -0.484043 0.555709
v -0.625 0.1875 0.03125
vt -0.453179 0.555709
v -0.625 2.0625 0.03125
vt -0.453179 0.78719
v -0.875 2.0625 0.03125
vt -0.484043 0.78719
f 33/97/4 34/98/4 35/99/4 36/100/4 

vt 0.547326 -0.21057
vt 0.578191 -0.21057
v -0.875 0.1875 -0.34375
vt 0.578191 -0.164274
v -0.625 0.1875 -0.34375
vt 0.547326 -0.164274
f 34/101/13 33/102/13 37/103/13 38/104/13 

vt 0.515538 -1.44421
vt 0.515538 -1.21273
v -0.875 2.0625 -0.34375
vt 0.469242 -1.21273
vt 0.469242 -1.44421
f 33/105/14 36/106/14 39/107/14 37/108/14 

vt -0.484224 -0.211269
vt -0.45336 -0.211269
v -0.625 2.0625 -0.34375
vt -0.45336 -0.164972
vt -0.484224 -0.164972
f 36/109/15 35/110/15 40/111/15 39/112/15 

vt -0.453325 0.78773
vt -0.453325 0.556249
vt -0.407029 0.556249
vt -0.407029 0.78773
f 35/113/16 34/114/16 38/115/16 40/116/16 

vt 0.593469 0.556052
vt 0.624333 0.556052
vt 0.624333 0.787533
vt 0.593469 0.787533
f 38/117/9 37/118/9 39/119/9 40/120/9 

v -0.125 2.21875 0.28125
vt -0.796371 1.99963
vn 2.31012e-013 1 -0
v -0.125 2.21875 0.40625
vt -0.796371 1.9842
v 5.12016e-013 2.21875 0.40625
vt -0.780939 1.9842
v 5.12016e-013 2.21875 0.28125
vt -0.780939 1.99963
f 41/121/17 42/122/17 43/123/17 44/124/17 

vt -0.797421 -0.0160121
vn -1 2.31012e-013 -0
vt -0.812853 -0.0160121
v -0.125 1.96875 0.28125
vt -0.812853 -0.0468763
v -0.125 1.96875 0.40625
vt -0.797421 -0.0468763
f 42/125/18 41/126/18 45/127/18 46/128/18 

vt 0.249275 1.98472
vt 0.233843 1.98472
v 4.54263e-013 1.96875 0.28125
vt 0.233843 1.95386
vt 0.249275 1.95386
f 41/129/9 44/130/9 47/131/9 45/132/9 

vt 1.23422 -0.01556
vn 1 -2.31012e-013 -0
vt 1.21879 -0.01556
v 4.54263e-013 1.96875 0.40625
vt 1.21879 -0.0464242
vt 1.23422 -0.0464242
f 44/133/19 43/134/19 48/135/19 47/136/19 

vt 1.2186 -0.0156186
vt 1.20317 -0.0156186
vt 1.20317 -0.0464828
vt 1.2186 -0.0464828
f 43/137/11 42/138/11 46/139/11 48/140/11 

vt 0.21843 -1.00072
vn -2.31012e-013 -1 -0
vt 0.21843 -1.01615
vt 0.233862 -1.01615
vt 0.233862 -1.00072
f 46/141/20 45/142/20 47/143/20 48/144/20 

v -0.3125 2.65625 -0.21875
vt 1.06318 0.99892
vn 2.30723e-013 1 -0
v -0.3125 2.65625 0.28125
vt 1.06318 0.937192
v 0.1875 2.65625 0.28125
vt 1.12491 0.937192
v 0.1875 2.65625 -0.21875
vt 1.12491 0.99892
f 49/145/21 50/146/21 51/147/21 52/148/21 

vt 0.0625376 1.93739
vn -1 2.30723e-013 -0
vt 0.000809219 1.93739
v -0.3125 2.03125 -0.21875
vt 0.000809219 1.86023
v -0.3125 2.03125 0.28125
vt 0.0625376 1.86023
f 50/149/22 49/150/22 53/151/22 54/152/22 

vt 0.249213 1.93667
vt 0.187485 1.93667
v 0.1875 2.03125 -0.21875
vt 0.187485 1.85951
vt 0.249213 1.85951
f 49/153/9 52/154/9 55/155/9 53/156/9 

vt 2.18664 -0.0629993
vn 1 -2.30723e-013 -0
vt 2.12492 -0.0629993
v 0.1875 2.03125 0.28125
vt 2.12492 -0.14016
vt 2.18664 -0.14016
f 52/157/23 51/158/23 56/159/23 55/160/23 

vt 0.124925 -0.0625826
vt 0.0631968 -0.0625826
vt 0.0631968 -0.139743
vt 0.124925 -0.139743
f 51/161/11 50/162/11 54/163/11 56/164/11 

vt 2.18737 -0.0617632
vn -2.30723e-013 -1 -0
vt 2.18737 -3.47845e-005
vt 2.12564 -3.47845e-005
vt 2.12564 -0.0617632
f 54/165/24 53/166/24 55/167/24 56/168/24 

v -0.34375 1.28125 -0.34375
vt 0.0472897 2.45223
v -0.34375 1.28125 0.03125
vt 0.0472897 2.40593
v 0.21875 1.28125 0.03125
vt 0.116734 2.40593
v 0.21875 1.28125 -0.34375
vt 0.116734 2.45223
f 57/169/21 58/170/21 59/171/21 60/172/21 

vt 2.04702 -0.593725
vt 2.00072 -0.593725
v -0.34375 0.96875 -0.34375
vt 2.00072 -0.632305
v -0.34375 0.96875 0.03125
vt 2.04702 -0.632305
f 58/173/22 57/174/22 61/175/22 62/176/22 

vt 2.23339 -0.593244
vt 2.16395 -0.593244
v 0.21875 0.96875 -0.34375
vt 2.16395 -0.631824
vt 2.23339 -0.631824
f 57/177/9 60/178/9 63/179/9 61/180/9 

vt 0.163791 1.40683
vt 0.117495 1.40683
v 0.21875 0.96875 0.03125
vt 0.117495 1.36825
vt 0.163791 1.36825
f 60/181/23 59/182/23 64/183/23 63/184/23 

vt 0.116785 1.4063
vt 0.0473403 1.4063
vt 0.0473403 1.36772
vt 0.116785 1.36772
f 59/185/11 58/186/11 62/187/11 64/188/11 

vt 1.11723 -1.54786
vt 1.11723 -1.59416
vt 1.18667 -1.59416
vt 1.18667 -1.54786
f 62/189/24 61/190/24 63/191/24 64/192/24 

