o mushroom
s off


usemtl mushroom_red
v -0.170128 1.88198 0.031625
vt 1.25976 2.38285
vn -0.669131 0 0.743145
v -0.170128 1.50198 0.031625
vt 1.25976 2.00285
v 0.0097082 1.50198 0.19355
vt 1.50176 2.00285
v 0.205051 1.50198 0.369438
vt 1.76462 2.00285
v 0.205051 1.88198 0.369438
vt 1.76462 2.38285
v 0.0097082 1.88198 0.19355
vt 1.50176 2.38285
f 1/1/1 2/2/1 3/3/1 4/4/1 5/5/1 6/6/1

vn 0.669131 -0 -0.743145
f 6/6/2 5/5/2 4/4/2 3/3/2 2/2/2 1/1/2

v 0.178058 1.88198 0.00657868
vn -0.743145 -1.10023e-029 -0.669131
v 0.178058 1.50198 0.00657868
vt 1.51000 2.00285
v -0.159755 1.50198 0.381758
v -0.159755 1.88198 0.381758
vt 1.51000 2.38285
f 7/1/3 8/2/3 3/7/3 9/4/3 10/5/3 6/8/3

vn 0.743145 1.10023e-029 0.669131
f 6/8/4 10/5/4 9/4/4 3/7/4 8/2/4 7/1/4

v -0.218477 1.75235 -0.664306
vn -0.66523 0 0.746638
v -0.218477 1.37235 -0.664306
v -0.0377953 1.37235 -0.503325
v 0.158466 1.37235 -0.328462
v 0.158466 1.75235 -0.328462
v -0.0377953 1.75235 -0.503325
f 11/1/5 12/2/5 13/3/5 14/4/5 15/5/5 16/6/5

vn 0.66523 -0 -0.746638
f 16/6/6 15/5/6 14/4/6 13/3/6 12/2/6 11/1/6

v 0.129573 1.75235 -0.691175
vn -0.746638 -1.10023e-029 -0.66523
v 0.129573 1.37235 -0.691175
v -0.20627 1.37235 -0.314233
v -0.20627 1.75235 -0.314233
f 17/1/7 18/2/7 13/7/7 19/4/7 20/5/7 16/8/7

vn 0.746638 1.10023e-029 0.66523
f 16/8/8 20/5/8 19/4/8 13/7/8 18/2/8 17/1/8

v -0.0684624 1.73417 -0.962852
vn 0 0 1
v -0.0684624 1.35417 -0.962852
v 0.173531 1.35417 -0.962852
v 0.436391 1.35417 -0.962852
v 0.436391 1.73417 -0.962852
v 0.173531 1.73417 -0.962852
f 21/1/9 22/2/9 23/3/9 24/4/9 25/5/9 26/6/9

vn -0 -0 -1
f 26/6/10 25/5/10 24/4/10 23/3/10 22/2/10 21/1/10

v 0.173531 1.73417 -1.21445
vn -1 -1.10023e-029 1.36346e-012
v 0.173531 1.35417 -1.21445
v 0.173531 1.35417 -0.709594
v 0.173531 1.73417 -0.709594
f 27/1/11 28/2/11 23/7/11 29/4/11 30/5/11 26/8/11

vn 1 1.10023e-029 -1.36346e-012
f 26/8/12 30/5/12 29/4/12 23/7/12 28/2/12 27/1/12

usemtl mob_mushroom
v 0.237111 1.5 -0.000695676
vt 0.312718 1.81239
vn 1 -4.57508e-014 2.59191e-014
v 0.237111 1.5 0.186804
vt 0.265843 1.81239
v 0.237111 1.375 0.186804
vt 0.265843 1.74989
v 0.237111 1.375 0.249304
vt 0.250218 1.74989
v 0.237111 1.5 0.249304
vt 0.250218 1.81239
v 0.237111 1.5 0.374304
vt 0.218968 1.81239
v 0.237111 1 0.374304
vt 0.218968 1.56239
v 0.237111 1 -0.000695676
vt 0.312718 1.56239
v 0.237111 1.375 -0.000695676
vt 0.312718 1.74989
f 31/9/13 32/10/13 33/11/13 34/12/13 35/13/13 36/14/13 37/15/13 38/16/13 39/17/13

v -0.262889 1.5 -0.000695676
vt 0.0939199 0.00057498
vn 4.16235e-014 1 1.60436e-014
v -0.262889 1.5 0.186804
vt 0.0939199 -0.093175
v -0.262889 1.5 0.249304
vt 0.0939199 -0.124425
v -0.262889 1.5 0.374304
vt 0.0939199 -0.186925
vt 0.21892 -0.186925
vt 0.21892 -0.124425
v 0.237111 1.5 0.195975
vt 0.21892 -0.0977603
vt 0.21892 -0.093175
vt 0.21892 0.00057498
f 40/18/14 41/19/14 42/20/14 43/21/14 36/22/14 35/23/14 44/24/14 32/25/14 31/26/14

vt -0.906116 0.812782
vn -1 4.37947e-015 4.35211e-015
vt -0.937366 0.812782
v -0.262889 1.375 0.249304
vt -0.937366 0.750282
v -0.262889 1.375 0.186804
vt -0.952991 0.750282
vt -0.952991 0.812782
vt -0.999866 0.812782
v -0.262889 1.375 -0.000695676
vt -0.999866 0.750282
v -0.262889 1 -0.000695676
vt -0.999866 0.562782
v -0.262889 1 0.374304
vt -0.906116 0.562782
f 43/27/15 42/28/15 45/29/15 46/30/15 41/31/15 40/32/15 47/33/15 48/34/15 49/35/15

v -0.325389 1.5625 0.249304
vt 0.358837 0.969043
vn 2.67107e-014 7.99259e-015 1
v -0.325389 1.5 0.249304
vt 0.358837 0.937793
v -0.325389 1.375 0.249304
vt 0.358837 0.875293
vt 0.374462 0.875293
vt 0.374462 0.937793
v -0.262889 1.5625 0.249304
vt 0.374462 0.969043
f 50/36/16 51/37/16 52/38/16 45/39/16 42/40/16 53/41/16

v -0.325389 1.5 0.186804
vt -0.624505 0.937427
vn -1 -6.4972e-015 9.62549e-016
v -0.325389 1.375 0.186804
vt -0.624505 0.874927
vt -0.60888 0.874927
vt -0.60888 0.937427
vt -0.60888 0.968677
v -0.325389 1.5625 0.186804
vt -0.624505 0.968677
f 54/42/17 55/43/17 52/44/17 51/45/17 50/46/17 56/47/17

v -0.262889 1.5625 0.186804
vt -0.609871 0.968263
vn -2.55075e-014 -6.83238e-015 -1
vt -0.609871 0.937013
vt -0.609871 0.874513
vt -0.594246 0.874513
vt -0.594246 0.937013
vt -0.594246 0.968263
f 57/48/18 41/49/18 46/50/18 55/51/18 54/52/18 56/53/18

vt 0.377947 0.968989
vn 1 -5.77529e-014 -0
vt 0.377947 0.937739
vt 0.393572 0.937739
vt 0.393572 0.968989
f 53/54/19 42/55/19 41/56/19 57/57/19

usemtl FrontColor
vt 7.73179 59.0551
vn 1 2.85155e-014 -4.4611e-032
vt 5.27116 59.0551
vt 5.27116 54.1339
vt 7.73179 54.1339
f 41/58/20 42/59/20 45/60/20 46/61/20

usemtl mob_mushroom
vt -0.609251 0.99986
vn 0 -1 -0
vt -0.624876 0.99986
vt -0.624876 0.96861
vt -0.609251 0.96861
f 55/62/21 46/63/21 45/64/21 52/65/21

vt 0.359529 1.96834
vn 0 1 -0
vt 0.375154 1.96834
vt 0.375154 1.99959
vt 0.359529 1.99959
f 50/66/22 53/67/22 57/68/22 56/69/22

vt -0.687472 0.811704
vn -5.26602e-015 -2.50614e-014 -1
vt -0.687472 0.749204
vt -0.562472 0.749204
vt -0.562472 0.811704
f 31/70/23 39/71/23 47/72/23 40/73/23

usemtl FrontColor
vt 4.92126 54.1339
vn 3.23265e-015 -5.64264e-015 1
vt 4.92126 39.3701
vt 24.6063 39.3701
vt 24.6063 54.1339
f 47/74/24 48/75/24 38/76/24 39/77/24

usemtl mob_mushroom
v -0.387889 1.375 -0.000695676
vt 0.437361 0.875364
vn 6.61752e-016 7.90378e-015 1
v -0.387889 0.75 -0.000695676
vt 0.437361 0.562864
v -0.137889 0.75 -0.000695676
vt 0.499861 0.562864
v 0.112111 0.75 -0.000695676
vt 0.562361 0.562864
v 0.362111 0.75 -0.000695676
vt 0.624861 0.562864
v 0.362111 1.375 -0.000695676
vt 0.624861 0.875364
vt 0.593611 0.875364
vt 0.593611 0.687864
vt 0.468611 0.687864
vt 0.468611 0.875364
f 58/78/25 59/79/25 60/80/25 61/81/25 62/82/25 63/83/25 39/84/25 38/85/25 48/86/25 47/87/25

vt -1.71889 1.56197
vn -1 4.1618e-014 1.19646e-014
v -0.387889 1.375 -1.1257
vt -1.71889 0.999475
v -0.387889 0.75 -1.1257
vt -1.56264 0.999475
v -0.387889 0.75 -1.0632
vt -1.56264 1.03072
v -0.387889 0.75 -0.813196
vt -1.56264 1.15572
v -0.387889 0.75 -0.250696
vt -1.56264 1.43697
vt -1.56264 1.56197
f 58/88/26 64/89/26 65/90/26 66/91/26 67/92/26 68/93/26 59/94/26

vt -0.218998 0.562227
vn -9.84425e-017 1 -3.00936e-031
v 0.362111 1.375 -1.1257
vt -0.218998 -0.000273494
vt -0.0314976 -0.000273494
vt -0.0314976 0.562227
vt -0.0627476 0.562227
vt -0.187748 0.562227
f 63/95/27 69/96/27 64/97/27 58/98/27 47/99/27 39/100/27

vt 0.62454 -0.436974
vn 1 -4.59605e-015 -3.67913e-015
v 0.362111 0.75 -0.250696
vt 0.62454 -0.561974
v 0.362111 0.75 -0.813196
vt 0.62454 -0.843224
v 0.362111 0.75 -1.0632
vt 0.62454 -0.968224
v 0.362111 0.75 -1.1257
vt 0.62454 -0.999474
vt 0.78079 -0.999474
vt 0.78079 -0.436974
f 62/101/28 70/102/28 71/103/28 72/104/28 73/105/28 69/106/28 63/107/28

usemtl FrontColor
vt -29.5276 15.1137
vn -1.80478e-014 -1 -1.80478e-014
vt -19.685 15.1137
v 0.112111 0.75 -0.250696
vt -19.685 24.9562
vt -29.5276 24.9562
f 62/108/29 61/109/29 74/110/29 70/111/29

usemtl mob_mushroom
vt 0.0625825 0.375462
vn 2.70717e-016 3.91035e-016 1
v 0.112111 1.01519e-014 -0.000695676
vt 0.0625825 0.000462311
v 0.362111 1.01519e-014 -0.000695676
vt 0.125083 0.000462311
vt 0.125083 0.375462
f 61/112/30 75/113/30 76/114/30 62/115/30

v 0.112111 0.685 -0.250696
vt -1 0.3425
vn -1 2.12887e-014 4.33308e-014
v 0.112111 1.94257e-014 -0.250696
vt -1 5.31378e-015
vt -0.9375 6.76631e-016
vt -0.9375 0.375
vt -1 0.375
f 77/116/31 78/117/31 75/118/31 61/119/31 74/120/31

vt -0.812724 0.375608
vn 9.10999e-014 -2.87728e-014 -1
v 0.362111 1.0197e-014 -0.250696
vt -0.812724 0.000608066
vt -0.750224 0.000608066
vt -0.750224 0.343108
vt -0.750224 0.375608
f 70/121/32 79/122/32 78/123/32 77/124/32 74/125/32

vt 0.12418 0.375028
vn 1 -1.88299e-014 -5.46848e-014
vt 0.12418 2.84815e-005
vt 0.18668 2.84815e-005
vt 0.18668 0.375028
f 62/126/33 76/127/33 79/128/33 70/129/33

vt -0.813017 0.501468
vn -1.84575e-014 -1 -1.86379e-014
vt -0.875517 0.501468
vt -0.875517 0.376468
vt -0.813017 0.376468
f 78/130/34 79/131/34 76/132/34 75/133/34

v -0.137889 0.75 -0.813196
vt -1.49926 0.157466
vn 1.40945e-015 -1 -1.54576e-015
v 0.112111 0.75 -0.813196
vt -1.43676 0.157466
vt -1.37426 0.157466
vt -1.37426 0.438716
vt -1.43676 0.438716
vt -1.43676 0.563716
vt -1.49926 0.563716
v -0.137889 0.75 -0.250696
vt -1.49926 0.438716
vt -1.56176 0.438716
vt -1.56176 0.157466
f 80/134/35 81/135/35 71/136/35 70/137/35 74/138/35 61/139/35 60/140/35 82/141/35 68/142/35 67/143/35

usemtl FrontColor
vt -9.84252 47.1019
v -0.137889 0.75 -1.0632
vt -9.84252 56.9444
v -0.137889 0.75 -1.1257
vt -9.84252 59.405
v 0.112111 0.75 -1.1257
vt -19.685 59.405
v 0.112111 0.75 -1.0632
vt -19.685 56.9444
vt -19.685 47.1019
f 80/144/21 83/145/21 84/146/21 85/147/21 86/148/21 81/149/21

v -0.137889 0.685 -0.813196
vt 47.1019 26.9685
vn 1 0 7.39959e-015
v -0.137889 0.685 -1.0632
vt 56.9444 26.9685
vt 56.9444 29.5276
vt 47.1019 29.5276
f 87/150/36 88/151/36 83/152/36 80/153/36

usemtl mob_mushroom
vt -1.15629 -0.0622743
vt -1.15629 -0.187274
v -0.137889 0.685 -1.1257
vt -1.15629 -0.218524
v 0.112111 0.685 -1.1257
vt -1.09379 -0.218524
v 0.112111 0.685 -1.0632
vt -1.09379 -0.187274
v 0.112111 0.685 -0.813196
vt -1.09379 -0.0622743
f 87/154/21 88/155/21 89/156/21 90/157/21 91/158/21 92/159/21

v -0.137889 1.02872e-014 -1.0632
vn 1 -7.15654e-014 7.12888e-015
vt 0.18668 0.342528
vt 0.12418 0.342528
v -0.137889 1.02872e-014 -0.813196
f 93/128/37 88/160/37 87/161/37 94/127/37

vt -0.812724 0.343108
vn -1.9251e-015 -7.81458e-014 -1
v -0.387889 1.08287e-015 -1.0632
v -0.387889 0.685 -1.0632
f 88/162/38 93/122/38 95/123/38 96/124/38 66/125/38 83/121/38

vn 1.836e-014 -1 1.84575e-014
v -0.387889 1.03116e-014 -0.813196
f 95/130/39 93/131/39 94/132/39 97/133/39

vn 7.59201e-014 6.2005e-014 1
vt 0.125083 0.342962
f 67/112/40 97/113/40 94/114/40 87/163/40 80/115/40

vn -1 9.214e-015 -1.96837e-014
vt -1 -1.0551e-029
vt -0.9375 4.61414e-015
f 96/116/41 95/164/41 97/165/41 67/119/41 66/120/41

usemtl FrontColor
vn 1.91307e-014 -1 1.84087e-014
vt -6.99885e-013 47.1019
vt -5.66658e-013 56.9444
f 80/144/42 67/166/42 66/167/42 83/145/42

usemtl mob_mushroom
vt -1.57785 -0.999468
vn 1.84087e-014 -1 -7.65226e-014
vt -1.51535 -0.999468
vt -1.51535 -0.968218
vt -1.57785 -0.968218
f 65/168/43 84/169/43 83/170/43 66/171/43

vt -0.187633 0.561882
vn 5.6993e-016 -6.20844e-015 -1
vt -0.187633 0.874382
vt -0.375133 0.874382
vt -0.375133 0.561882
vt -0.312633 0.561882
vt -0.250133 0.561882
f 65/172/44 64/173/44 69/174/44 73/175/44 85/176/44 84/177/44

vt 0.546956 0.0327412
vn -2.49059e-014 -1 -1.02511e-013
vt 0.546956 0.00149119
vt 0.609456 0.00149119
vt 0.609456 0.0327412
f 86/178/45 85/179/45 73/180/45 72/181/45

vt 0.812753 -0.0943879
vn 1 0 -0
vt 0.829003 -0.0943879
vt 0.829003 -0.0631379
vt 0.812753 -0.0631379
f 86/182/46 91/183/46 90/184/46 85/185/46

usemtl FrontColor
vt -56.9444 26.9685
vn -1 0 -7.21911e-015
vt -47.1019 26.9685
vt -47.1019 29.5276
vt -56.9444 29.5276
f 91/186/47 92/187/47 81/188/47 86/189/47

usemtl mob_mushroom
vn -1 3.71495e-014 2.16573e-015
v 0.112111 1.08287e-015 -1.0632
vt -1 2.0848e-015
v 0.112111 4.51195e-017 -0.813196
vt -0.9375 1.56571e-015
vt -0.9375 0.3425
f 91/116/48 98/190/48 99/191/48 92/192/48

vn 9.93416e-014 -6.64697e-014 -1
v 0.362111 9.02389e-017 -1.0632
f 72/121/49 100/122/49 98/123/49 91/124/49 86/125/49

vn 1 -1.90705e-014 -5.17971e-014
v 0.362111 4.51195e-017 -0.813196
f 71/126/50 101/127/50 100/128/50 72/129/50

vn -1.43865e-013 4.69533e-014 1
vt 0.0625825 0.342962
f 81/112/51 92/193/51 99/113/51 101/114/51 71/115/51

vt 0.907094 -0.000938884
vt 0.844594 -0.000938884
vt 0.844594 -0.0334389
vt 0.907094 -0.0334389
f 87/194/5 92/195/5 81/196/5 80/197/5

vn -1.98526e-015 -1 -2.16573e-015
f 98/130/52 100/131/52 101/132/52 99/133/52

usemtl FrontColor
vt -29.5276 47.1019
vn -4.62023e-014 -1 4.33147e-015
vt -29.5276 56.9444
f 71/198/53 81/149/53 86/148/53 72/199/53

usemtl mob_mushroom
vt -0.0307027 0.999405
vn 0 0 -1
vt -0.0932027 0.999405
vt -0.0932027 0.966905
vt -0.0307027 0.966905
f 90/200/54 89/201/54 84/202/54 85/203/54

vt -1.07908 -1.09256
vn -1 0 -0
vt -1.06283 -1.09256
vt -1.06283 -1.06131
vt -1.07908 -1.06131
f 88/204/55 83/205/55 84/206/55 89/207/55

usemtl FrontColor
vt -9.84252 15.1137
vn -4.1149e-014 -1 9.38485e-015
vt -1.00364e-012 15.1137
vt 1.40332e-013 24.9562
vt -9.84252 24.9562
f 60/208/56 59/209/56 68/210/56 82/211/56

usemtl mob_mushroom
vn -4.15099e-015 3.62159e-014 1
v -0.387889 1.0197e-014 -0.000695676
v -0.137889 1.0197e-014 -0.000695676
f 59/112/57 102/113/57 103/114/57 60/115/57

v -0.387889 0.685 -0.250696
vn -1 2.63734e-014 2.77456e-014
v -0.387889 1.0197e-014 -0.250696
vt -1 -3.32798e-015
vt -0.9375 -3.3282e-015
f 104/116/58 105/212/58 102/213/58 59/119/58 68/120/58

vn 7.94698e-014 -5.69102e-014 -1
v -0.137889 1.0197e-014 -0.250696
f 82/121/59 106/122/59 105/123/59 104/124/59 68/125/59

vn 1 6.01593e-016 3.97051e-015
f 60/126/60 103/127/60 106/128/60 82/129/60

f 105/130/21 106/131/21 103/132/21 102/133/21

vt -0.656172 0.812788
vn -3.73589e-014 -1 -1.46789e-014
vt -0.656172 1.00029
vt -0.781172 1.00029
vt -0.781172 0.812788
f 49/214/61 48/215/61 38/216/61 37/217/61

vt 1.09394 0.811772
vn 2.07098e-014 8.97877e-015 1
vt 1.09394 0.561772
vt 1.21894 0.561772
vt 1.21894 0.811772
f 43/218/62 49/219/62 37/220/62 36/221/62

vn -1 4.87958e-015 7.60638e-015
v 0.237111 1.5625 0.249304
v 0.237111 1.5625 0.186804
vt -0.622212 0.937427
f 35/45/63 107/46/63 108/47/63 32/42/63 44/222/63

v 0.299611 1.375 0.249304
v 0.299611 1.5625 0.249304
f 107/36/5 35/37/5 34/38/5 109/39/5 110/41/5

usemtl FrontColor
vt -5.27116 59.0551
vn -1 -2.43979e-015 7.60638e-015
vt -7.37074 59.0551
vt -7.73179 59.0551
vt -7.73179 54.1339
vt -5.27116 54.1339
f 35/223/64 44/224/64 32/225/64 33/226/64 34/227/64

usemtl mob_mushroom
v 0.299611 1.5625 0.186804
vn -3.82613e-014 -1.61507e-029 -1
v 0.299611 1.375 0.186804
f 111/48/65 112/50/65 33/51/65 32/52/65 108/53/65

vn 1 0 -1.51601e-014
vt 0.377947 0.875239
vt 0.393572 0.875239
f 110/54/66 109/228/66 112/229/66 111/57/66

f 33/62/21 112/63/21 109/64/21 34/65/21

f 107/66/22 110/67/22 111/68/22 108/69/22

