o mushroom
usemtl mob_mushroom
s off


v -0.262889 1.5 -0.000695676
vt -23.622 31.4961
vn -1 0 -0
v -0.262889 1 -0.000695676
vt -23.622 0
v -0.262889 1 0.374304
vt 0 0
v -0.262889 1.5 0.374304
vt 0 31.4961
f 1/1/1 2/2/1 3/3/1 4/4/1 

vn 1 -0 0
f 4/4/2 3/3/2 2/2/2 1/1/2 

v 0.237111 1.5 0.374304
vn 1 -8.24341e-014 1.4988e-015
v 0.237111 1 0.374304
v 0.237111 1 -0.000695676
v 0.237111 1.5 -0.000695676
f 5/1/3 6/2/3 7/3/3 8/4/3 

vn -1 8.24341e-014 -1.4988e-015
f 8/4/4 7/3/4 6/2/4 5/1/4 

v -0.262889 1.5 0.374304
vt -31.4961 31.4961
vn 4.91274e-015 -2.04003e-015 1
v -0.262889 1 0.374304
vt -31.4961 0
v 0.237111 1 0.374304
v 0.237111 1.5 0.374304
f 9/5/5 10/6/5 11/3/5 12/4/5 

vn -4.91274e-015 2.04003e-015 -1
f 12/4/6 11/3/6 10/6/6 9/5/6 

v 0.237111 1.5625 0.249304
vt 0 11.811
vn 0 0 1
v 0.237111 1.375 0.249304
v 0.299611 1.375 0.249304
vt 3.93701 0
v 0.299611 1.5625 0.249304
vt 3.93701 11.811
f 13/7/7 14/3/7 15/8/7 16/9/7 

vn -0 -0 -1
f 16/9/8 15/8/8 14/3/8 13/7/8 

v 0.237111 1.5 -0.000695676
vn 7.77156e-016 -2.26208e-015 -1
v 0.237111 1 -0.000695676
v -0.262889 1 -0.000695676
v -0.262889 1.5 -0.000695676
f 17/5/9 18/6/9 19/3/9 20/4/9 

vn -7.77156e-016 2.26208e-015 1
f 20/4/10 19/3/10 18/6/10 17/5/10 

v 0.237111 1.5625 0.186804
vn -1 0 1.66533e-016
v 0.237111 1.375 0.186804
v 0.237111 1.375 0.249304
v 0.237111 1.5625 0.249304
f 21/7/11 22/3/11 23/8/11 24/9/11 

vn 1 -0 -1.66533e-016
f 24/9/12 23/8/12 22/3/12 21/7/12 

v 0.237111 1.375 0.186804
vn 0 -1 1.38778e-016
v 0.299611 1.375 0.186804
v 0.299611 1.375 0.249304
vt 3.93701 3.93701
v 0.237111 1.375 0.249304
vt 0 3.93701
f 25/3/13 26/8/13 27/10/13 28/11/13 

vn -0 1 -1.38778e-016
f 28/11/14 27/10/14 26/8/14 25/3/14 

v 0.299611 1.5625 0.249304
vn 1 0 5.55112e-017
v 0.299611 1.375 0.249304
v 0.299611 1.375 0.186804
v 0.299611 1.5625 0.186804
f 29/7/15 30/3/15 31/8/15 32/9/15 

vn -1 -0 -5.55112e-017
f 32/9/16 31/8/16 30/3/16 29/7/16 

v 0.237111 1.5625 0.249304
vn 0 1 6.12323e-017
v 0.299611 1.5625 0.249304
v 0.299611 1.5625 0.186804
v 0.237111 1.5625 0.186804
f 33/3/17 34/8/17 35/10/17 36/11/17 

vn -0 -1 -6.12323e-017
f 36/11/18 35/10/18 34/8/18 33/3/18 

v -0.325389 1.375 0.186804
v -0.262889 1.375 0.186804
v -0.262889 1.375 0.249304
v -0.325389 1.375 0.249304
f 37/3/13 38/8/13 39/10/13 40/11/13 

f 40/11/14 39/10/14 38/8/14 37/3/14 

v 0.299611 1.5625 0.186804
vn 1.16743e-016 0 -1
v 0.299611 1.375 0.186804
v 0.237111 1.375 0.186804
v 0.237111 1.5625 0.186804
f 41/7/19 42/3/19 43/8/19 44/9/19 

vn -1.16743e-016 -0 1
f 44/9/20 43/8/20 42/3/20 41/7/20 

v -0.325389 1.5625 0.249304
v -0.262889 1.5625 0.249304
v -0.262889 1.5625 0.186804
v -0.325389 1.5625 0.186804
f 45/3/17 46/8/17 47/10/17 48/11/17 

f 48/11/18 47/10/18 46/8/18 45/3/18 

v -0.262889 1.5625 0.186804
v -0.262889 1.375 0.186804
v -0.325389 1.375 0.186804
v -0.325389 1.5625 0.186804
f 49/7/19 50/3/19 51/8/19 52/9/19 

f 52/9/20 51/8/20 50/3/20 49/7/20 

v -0.262889 1.5625 0.249304
v -0.262889 1.375 0.249304
v -0.262889 1.375 0.186804
v -0.262889 1.5625 0.186804
f 53/7/15 54/3/15 55/8/15 56/9/15 

f 56/9/16 55/8/16 54/3/16 53/7/16 

v -0.325389 1.375 0.249304
v -0.262889 1.375 0.249304
v -0.262889 1.5625 0.249304
f 45/7/7 57/3/7 58/8/7 59/9/7 

f 59/9/8 58/8/8 57/3/8 45/7/8 

v -0.325389 1.5625 0.186804
v -0.325389 1.375 0.186804
v -0.325389 1.375 0.249304
v -0.325389 1.5625 0.249304
f 60/7/11 61/3/11 62/8/11 63/9/11 

f 63/9/12 62/8/12 61/3/12 60/7/12 

v -0.262889 1.5 -0.000695676
vt 0 23.622
vn 2.12746e-014 1 7.21645e-016
v -0.262889 1.5 0.374304
v 0.237111 1.5 0.374304
vt 31.4961 0
v 0.237111 1.5 -0.000695676
vt 31.4961 23.622
f 64/12/21 65/3/21 66/13/21 67/14/21 

vn -2.12746e-014 -1 -7.21645e-016
f 67/14/22 66/13/22 65/3/22 64/12/22 

v -0.262889 1 0.374304
vn -1.99424e-014 -1 7.77156e-016
v -0.262889 1 -0.000695676
v 0.237111 1 -0.000695676
v 0.237111 1 0.374304
f 68/12/23 69/3/23 70/13/23 71/14/23 

vn 1.99424e-014 1 -7.77156e-016
f 71/14/24 70/13/24 69/3/24 68/12/24 

v 0.299154 1.375 -0.999135
vt 27.5591 0
vn -3.55271e-016 0 -1
v 0.174154 1.375 -0.999135
vt 35.4331 0
v 0.174154 1.43751 -0.999135
vt 35.4331 3.93701
v 0.0491541 1.43751 -0.999135
vt 43.3071 3.93701
v 0.0491541 1.50003 -0.999135
vt 43.3071 7.87402
v -0.0133459 1.50003 -0.999135
vt 47.2441 7.87402
v -0.0133459 1.62506 -0.999135
vt 47.2441 15.748
v 0.0491541 1.62506 -0.999135
vt 43.3071 15.748
v 0.0491541 1.68757 -0.999135
vt 43.3071 19.685
v 0.111654 1.68757 -0.999135
vt 39.3701 19.685
v 0.111654 1.75009 -0.999135
vt 39.3701 23.622
v 0.361654 1.75009 -0.999135
vt 23.622 23.622
v 0.361654 1.68757 -0.999135
vt 23.622 19.685
v 0.424154 1.68757 -0.999135
vt 19.685 19.685
v 0.424154 1.62506 -0.999135
vt 19.685 15.748
v 0.486654 1.62506 -0.999135
vt 15.748 15.748
v 0.486654 1.56254 -0.999135
vt 15.748 11.811
v 0.424154 1.56254 -0.999135
vt 19.685 11.811
v 0.424154 1.43751 -0.999135
vt 19.685 3.93701
v 0.299154 1.43751 -0.999135
vt 27.5591 3.93701
f 72/15/25 73/16/25 74/17/25 75/18/25 76/19/25 77/20/25 78/21/25 79/22/25 80/23/25 81/24/25 82/25/25 83/26/25 84/27/25 85/28/25 86/29/25 87/30/25 88/31/25 89/32/25 90/33/25 91/34/25 

vn 3.55271e-016 -0 1
f 91/34/26 90/33/26 89/32/26 88/31/26 87/30/26 86/29/26 85/28/26 84/27/26 83/26/26 82/25/26 81/24/26 80/23/26 79/22/26 78/21/26 77/20/26 76/19/26 75/18/26 74/17/26 73/16/26 72/15/26 

v 0.236654 1.375 -0.936635
vn 1 0 -2.66454e-016
v 0.236654 1.375 -1.06163
v 0.236654 1.43751 -1.06163
v 0.236654 1.43751 -1.18663
v 0.236654 1.50003 -1.18663
v 0.236654 1.50003 -1.24913
v 0.236654 1.62506 -1.24913
v 0.236654 1.62506 -1.18663
v 0.236654 1.68757 -1.18663
v 0.236654 1.68757 -1.12413
v 0.236654 1.75009 -1.12413
v 0.236654 1.75009 -0.874135
v 0.236654 1.68757 -0.874135
v 0.236654 1.68757 -0.811635
v 0.236654 1.62506 -0.811635
v 0.236654 1.62506 -0.749135
v 0.236654 1.56254 -0.749135
v 0.236654 1.56254 -0.811635
v 0.236654 1.43751 -0.811635
v 0.236654 1.43751 -0.936635
f 92/15/27 93/16/27 94/17/27 95/18/27 96/19/27 97/20/27 98/21/27 99/22/27 100/23/27 101/24/27 102/25/27 103/26/27 104/27/27 105/28/27 106/29/27 107/30/27 108/31/27 109/32/27 110/33/27 111/34/27 

vn -1 -0 2.66454e-016
f 111/34/28 110/33/28 109/32/28 108/31/28 107/30/28 106/29/28 105/28/28 104/27/28 103/26/28 102/25/28 101/24/28 100/23/28 99/22/28 98/21/28 97/20/28 96/19/28 95/18/28 94/17/28 93/16/28 92/15/28 

v -0.0277632 1.375 -0.441847
vn 0.707107 0 -0.707107
v -0.116152 1.375 -0.530235
v -0.116152 1.43751 -0.530235
v -0.20454 1.43751 -0.618623
v -0.20454 1.50003 -0.618623
v -0.248734 1.50003 -0.662818
v -0.248734 1.62506 -0.662818
v -0.20454 1.62506 -0.618623
v -0.20454 1.68757 -0.618623
v -0.160346 1.68757 -0.574429
v -0.160346 1.75009 -0.574429
v 0.016431 1.75009 -0.397653
v 0.016431 1.68757 -0.397653
v 0.0606252 1.68757 -0.353458
v 0.0606252 1.62506 -0.353458
v 0.104819 1.62506 -0.309264
v 0.104819 1.56254 -0.309264
v 0.0606252 1.56254 -0.353458
v 0.0606252 1.43751 -0.353458
v -0.0277632 1.43751 -0.441847
f 112/15/29 113/16/29 114/17/29 115/18/29 116/19/29 117/20/29 118/21/29 119/22/29 120/23/29 121/24/29 122/25/29 123/26/29 124/27/29 125/28/29 126/29/29 127/30/29 128/31/29 129/32/29 130/33/29 131/34/29 

vn -0.707107 -0 0.707107
f 131/34/30 130/33/30 129/32/30 128/31/30 127/30/30 126/29/30 125/28/30 124/27/30 123/26/30 122/25/30 121/24/30 120/23/30 119/22/30 118/21/30 117/20/30 116/19/30 115/18/30 114/17/30 113/16/30 112/15/30 

v -0.116152 1.375 -0.441847
vn 0.707107 0 0.707107
v -0.0277632 1.375 -0.530235
v -0.0277632 1.43751 -0.530235
v 0.0606252 1.43751 -0.618623
v 0.0606252 1.50003 -0.618623
v 0.104819 1.50003 -0.662818
v 0.104819 1.62506 -0.662818
v 0.0606252 1.62506 -0.618623
v 0.0606252 1.68757 -0.618623
v 0.016431 1.68757 -0.574429
v 0.016431 1.75009 -0.574429
v -0.160346 1.75009 -0.397653
v -0.160346 1.68757 -0.397653
v -0.20454 1.68757 -0.353458
v -0.20454 1.62506 -0.353458
v -0.248734 1.62506 -0.309264
v -0.248734 1.56254 -0.309264
v -0.20454 1.56254 -0.353458
v -0.20454 1.43751 -0.353458
v -0.116152 1.43751 -0.441847
f 132/15/31 133/16/31 134/17/31 135/18/31 136/19/31 137/20/31 138/21/31 139/22/31 140/23/31 141/24/31 142/25/31 143/26/31 144/27/31 145/28/31 146/29/31 147/30/31 148/31/31 149/32/31 150/33/31 151/34/31 

vn -0.707107 -0 -0.707107
f 151/34/32 150/33/32 149/32/32 148/31/32 147/30/32 146/29/32 145/28/32 144/27/32 143/26/32 142/25/32 141/24/32 140/23/32 139/22/32 138/21/32 137/20/32 136/19/32 135/18/32 134/17/32 133/16/32 132/15/32 

v 0.0163631 1.5 0.250609
v -0.0720253 1.5 0.162221
v -0.0720253 1.56251 0.162221
v -0.160414 1.56251 0.0738325
v -0.160414 1.62503 0.0738325
v -0.204608 1.62503 0.0296383
v -0.204608 1.75006 0.0296383
v -0.160414 1.75006 0.0738325
v -0.160414 1.81257 0.0738325
v -0.116219 1.81257 0.118027
v -0.116219 1.87509 0.118027
v 0.0605573 1.87509 0.294803
v 0.0605573 1.81257 0.294803
v 0.104751 1.81257 0.338998
v 0.104751 1.75006 0.338998
v 0.148946 1.75006 0.383192
v 0.148946 1.68754 0.383192
v 0.104751 1.68754 0.338998
v 0.104751 1.56251 0.338998
v 0.0163631 1.56251 0.250609
f 152/15/29 153/16/29 154/17/29 155/18/29 156/19/29 157/20/29 158/21/29 159/22/29 160/23/29 161/24/29 162/25/29 163/26/29 164/27/29 165/28/29 166/29/29 167/30/29 168/31/29 169/32/29 170/33/29 171/34/29 

f 171/34/30 170/33/30 169/32/30 168/31/30 167/30/30 166/29/30 165/28/30 164/27/30 163/26/30 162/25/30 161/24/30 160/23/30 159/22/30 158/21/30 157/20/30 156/19/30 155/18/30 154/17/30 153/16/30 152/15/30 

v -0.0720253 1.5 0.250609
v 0.0163631 1.5 0.162221
v 0.0163631 1.56251 0.162221
v 0.104751 1.56251 0.0738325
v 0.104751 1.62503 0.0738325
v 0.148946 1.62503 0.0296383
v 0.148946 1.75006 0.0296383
v 0.104751 1.75006 0.0738325
v 0.104751 1.81257 0.0738325
v 0.0605573 1.81257 0.118027
v 0.0605573 1.87509 0.118027
v -0.116219 1.87509 0.294803
v -0.116219 1.81257 0.294803
v -0.160414 1.81257 0.338998
v -0.160414 1.75006 0.338998
v -0.204608 1.75006 0.383192
v -0.204608 1.68754 0.383192
v -0.160414 1.68754 0.338998
v -0.160414 1.56251 0.338998
v -0.0720253 1.56251 0.250609
f 172/15/31 173/16/31 174/17/31 175/18/31 176/19/31 177/20/31 178/21/31 179/22/31 180/23/31 181/24/31 182/25/31 183/26/31 184/27/31 185/28/31 186/29/31 187/30/31 188/31/31 189/32/31 190/33/31 191/34/31 

f 191/34/32 190/33/32 189/32/32 188/31/32 187/30/32 186/29/32 185/28/32 184/27/32 183/26/32 182/25/32 181/24/32 180/23/32 179/22/32 178/21/32 177/20/32 176/19/32 175/18/32 174/17/32 173/16/32 172/15/32 

v 0.112111 2.0394e-014 -0.250696
vt -15.748 0
vn -0 -1 -0
v 0.362111 2.0394e-014 -0.250696
v 0.362111 2.0394e-014 -0.000695676
vt 0 15.748
v 0.112111 2.0394e-014 -0.000695676
vt -15.748 15.748
f 192/35/33 193/3/33 194/36/33 195/37/33 

vn 0 1 0
f 195/37/34 194/36/34 193/3/34 192/35/34 

v 0.362111 0.75 -0.250696
vt 5.68434e-014 47.2441
vn -1.33725e-014 -2.22045e-016 -1
v 0.362111 1.0197e-014 -0.250696
v 0.112111 1.94257e-014 -0.250696
vt 15.748 0
v 0.112111 0.75 -0.250696
vt 15.748 47.2441
f 196/38/35 197/3/35 198/39/35 199/40/35 

vn 1.33725e-014 2.22045e-016 1
f 199/40/36 198/39/36 197/3/36 196/38/36 

v 0.112111 0.75 -0.000695676
vn -3.08149e-031 0 1
v 0.112111 1.01519e-014 -0.000695676
v 0.362111 1.01519e-014 -0.000695676
v 0.362111 0.75 -0.000695676
f 200/38/37 201/3/37 202/39/37 203/40/37 

vn 3.08149e-031 -0 -1
f 203/40/38 202/39/38 201/3/38 200/38/38 

v 0.112111 0.75 -0.000695676
vn 4.1217e-014 1 -8.99281e-015
v 0.362111 0.75 -0.000695676
v 0.362111 0.75 -0.250696
v 0.112111 0.75 -0.250696
f 204/35/39 205/3/39 206/36/39 207/37/39 

vn -4.1217e-014 -1 8.99281e-015
f 207/37/40 206/36/40 205/3/40 204/35/40 

v 0.362111 0.75 -0.000695676
v 0.362111 1.0197e-014 -0.000695676
v 0.362111 1.0197e-014 -0.250696
v 0.362111 0.75 -0.250696
f 208/38/15 209/3/15 210/39/15 211/40/15 

f 211/40/16 210/39/16 209/3/16 208/38/16 

v 0.112111 0.75 -0.250696
vn -1 -2.22045e-016 1.35447e-014
v 0.112111 1.11896e-014 -0.250696
v 0.112111 2.04184e-014 -0.000695676
v 0.112111 0.75 -0.000695676
f 212/38/41 213/3/41 214/39/41 215/40/41 

vn 1 2.22045e-016 -1.35447e-014
f 215/40/42 214/39/42 213/3/42 212/38/42 

v 0.362111 0.75 -1.0632
v 0.362111 9.02389e-017 -1.0632
v 0.112111 9.31897e-015 -1.0632
v 0.112111 0.75 -1.0632
f 216/38/35 217/3/35 218/39/35 219/40/35 

f 219/40/36 218/39/36 217/3/36 216/38/36 

v 0.362111 0.75 -0.813196
v 0.362111 9.02389e-017 -0.813196
v 0.362111 9.02389e-017 -1.0632
v 0.362111 0.75 -1.0632
f 220/38/15 221/3/15 222/39/15 223/40/15 

f 223/40/16 222/39/16 221/3/16 220/38/16 

v 0.112111 1.02872e-014 -1.0632
v 0.362111 1.02872e-014 -1.0632
v 0.362111 1.02872e-014 -0.813196
v 0.112111 1.02872e-014 -0.813196
f 224/35/33 225/3/33 226/36/33 227/37/33 

f 227/37/34 226/36/34 225/3/34 224/35/34 

v 0.112111 0.75 -0.813196
v 0.112111 4.51195e-017 -0.813196
v 0.362111 4.51195e-017 -0.813196
v 0.362111 0.75 -0.813196
f 228/38/37 229/3/37 230/39/37 231/40/37 

f 231/40/38 230/39/38 229/3/38 228/38/38 

v 0.112111 0.75 -0.813196
v 0.362111 0.75 -0.813196
v 0.362111 0.75 -1.0632
v 0.112111 0.75 -1.0632
f 232/35/39 233/3/39 234/36/39 235/37/39 

f 235/37/40 234/36/40 233/3/40 232/35/40 

v 0.112111 0.75 -1.0632
v 0.112111 1.08287e-015 -1.0632
v 0.112111 1.03116e-014 -0.813196
v 0.112111 0.75 -0.813196
f 236/38/41 237/3/41 238/39/41 239/40/41 

f 239/40/42 238/39/42 237/3/42 236/38/42 

v -0.387889 0.75 -0.000695676
v -0.137889 0.75 -0.000695676
v -0.137889 0.75 -0.250696
v -0.387889 0.75 -0.250696
f 240/35/39 241/3/39 242/36/39 243/37/39 

f 243/37/40 242/36/40 241/3/40 240/35/40 

v -0.387889 0.75 -0.000695676
v -0.387889 4.51195e-017 -0.000695676
v -0.137889 4.51195e-017 -0.000695676
v -0.137889 0.75 -0.000695676
f 244/38/37 245/3/37 246/39/37 247/40/37 

f 247/40/38 246/39/38 245/3/38 244/38/38 

v -0.137889 0.75 -0.250696
v -0.137889 0 -0.250696
v -0.387889 9.22873e-015 -0.250696
v -0.387889 0.75 -0.250696
f 248/38/35 249/3/35 250/39/35 251/40/35 

f 251/40/36 250/39/36 249/3/36 248/38/36 

v -0.387889 1.0197e-014 -0.250696
v -0.137889 1.0197e-014 -0.250696
v -0.137889 1.0197e-014 -0.000695676
v -0.387889 1.0197e-014 -0.000695676
f 252/35/33 253/3/33 254/36/33 255/37/33 

f 255/37/34 254/36/34 253/3/34 252/35/34 

v -0.387889 0.75 -0.250696
v -0.387889 9.92628e-016 -0.250696
v -0.387889 1.02214e-014 -0.000695676
v -0.387889 0.75 -0.000695676
f 256/38/41 257/3/41 258/39/41 259/40/41 

f 259/40/42 258/39/42 257/3/42 256/38/42 

v -0.137889 0.75 -0.000695676
v -0.137889 0 -0.000695676
v -0.137889 0 -0.250696
v -0.137889 0.75 -0.250696
f 260/38/15 261/3/15 262/39/15 263/40/15 

f 263/40/16 262/39/16 261/3/16 260/38/16 

v -0.387889 0.75 -1.0632
v -0.387889 1.08287e-015 -1.0632
v -0.387889 1.03116e-014 -0.813196
v -0.387889 0.75 -0.813196
f 264/38/41 265/3/41 266/39/41 267/40/41 

f 267/40/42 266/39/42 265/3/42 264/38/42 

v -0.137889 0.75 -0.813196
v -0.137889 9.02389e-017 -0.813196
v -0.137889 9.02389e-017 -1.0632
v -0.137889 0.75 -1.0632
f 268/38/15 269/3/15 270/39/15 271/40/15 

f 271/40/16 270/39/16 269/3/16 268/38/16 

v -0.387889 0.75 -0.813196
v -0.137889 0.75 -0.813196
v -0.137889 0.75 -1.0632
v -0.387889 0.75 -1.0632
f 272/35/39 273/3/39 274/36/39 275/37/39 

f 275/37/40 274/36/40 273/3/40 272/35/40 

v -0.387889 0.75 -0.813196
v -0.387889 4.51195e-017 -0.813196
v -0.137889 4.51195e-017 -0.813196
v -0.137889 0.75 -0.813196
f 276/38/37 277/3/37 278/39/37 279/40/37 

f 279/40/38 278/39/38 277/3/38 276/38/38 

v -0.137889 0.75 -1.0632
v -0.137889 9.02389e-017 -1.0632
v -0.387889 9.31897e-015 -1.0632
v -0.387889 0.75 -1.0632
f 280/38/35 281/3/35 282/39/35 283/40/35 

f 283/40/36 282/39/36 281/3/36 280/38/36 

v -0.387889 1.02872e-014 -1.0632
v -0.137889 1.02872e-014 -1.0632
v -0.137889 1.02872e-014 -0.813196
v -0.387889 1.02872e-014 -0.813196
f 284/35/33 285/3/33 286/36/33 287/37/33 

f 287/37/34 286/36/34 285/3/34 284/35/34 

v 0.362111 0.75 -0.000695676
vt 0 70.8661
vn 1 0 1.33227e-014
v 0.362111 0.75 -1.1257
v 0.362111 1.375 -1.1257
vt 39.3701 0
v 0.362111 1.375 -0.000695676
vt 39.3701 70.8661
f 288/41/43 289/3/43 290/42/43 291/43/43 

vn -1 -0 -1.33227e-014
f 291/43/44 290/42/44 289/3/44 288/41/44 

v -0.387889 1.375 -0.000695676
vn -1 2.99097e-031 -1.00614e-015
v -0.387889 1.375 -1.1257
v -0.387889 0.75 -1.1257
v -0.387889 0.75 -0.000695676
f 292/41/45 293/3/45 294/42/45 295/43/45 

vn 1 -2.99097e-031 1.00614e-015
f 295/43/46 294/42/46 293/3/46 292/41/46 

v -0.137889 0.625 -1.0632
v -0.137889 0.625 -0.813196
v -0.137889 0.75 -0.813196
vt 0 7.87402
v -0.137889 0.75 -1.0632
vt -15.748 7.87402
f 296/35/1 297/3/1 298/44/1 299/45/1 

f 299/45/2 298/44/2 297/3/2 296/35/2 

vn 0 -1 -0
v 0.112111 0.625 -1.0632
v 0.112111 0.625 -0.813196
f 297/3/47 296/36/47 300/37/47 301/35/47 

vn -0 1 0
f 301/35/48 300/37/48 296/36/48 297/3/48 

v 0.112111 0.625 -0.813196
vn 1 0 -7.29972e-015
v 0.112111 0.625 -1.0632
v 0.112111 0.75 -1.0632
v 0.112111 0.75 -0.813196
f 302/35/49 303/3/49 304/44/49 305/45/49 

vn -1 -0 7.29972e-015
f 305/45/50 304/44/50 303/3/50 302/35/50 

v 0.362111 1.375 -0.000695676
vn 2.77556e-017 1 -1.11022e-016
v -0.387889 1.375 -1.1257
vt 47.2441 0
v -0.387889 1.375 -0.000695676
vt 47.2441 70.8661
f 306/41/51 290/3/51 307/46/51 308/47/51 

vn -2.77556e-017 -1 1.11022e-016
f 308/47/52 307/46/52 290/3/52 306/41/52 

v -0.387889 1.375 -0.000695676
vt 0 39.3701
v -0.387889 0.75 -0.000695676
v 0.362111 0.75 -0.000695676
v 0.362111 1.375 -0.000695676
vt 47.2441 39.3701
f 309/48/7 310/3/7 311/46/7 312/49/7 

f 312/49/8 311/46/8 310/3/8 309/48/8 

v 0.112111 0.625 -1.0632
vn -1.66533e-016 0 -1
v 0.112111 0.75 -1.0632
f 313/35/53 296/3/53 299/44/53 314/45/53 

vn 1.66533e-016 -0 1
f 314/45/54 299/44/54 296/3/54 313/35/54 

v -0.387889 0.75 -1.1257
vn 1.16573e-015 -5.23983e-031 -1
v -0.387889 1.375 -1.1257
v 0.362111 1.375 -1.1257
v 0.362111 0.75 -1.1257
f 315/48/55 316/3/55 317/46/55 318/49/55 

vn -1.16573e-015 5.23983e-031 1
f 318/49/56 317/46/56 316/3/56 315/48/56 

v -0.387889 0.75 -0.000695676
vn -2.77556e-017 -1 -3.88578e-016
v -0.387889 0.75 -1.1257
v 0.362111 0.75 -1.1257
v 0.362111 0.75 -0.000695676
f 319/41/57 320/3/57 321/46/57 322/47/57 

vn 2.77556e-017 1 3.88578e-016
f 322/47/58 321/46/58 320/3/58 319/41/58 

v -0.137889 0.625 -0.813196
vn -5.55112e-017 0 1
v 0.112111 0.625 -0.813196
v 0.112111 0.75 -0.813196
v -0.137889 0.75 -0.813196
f 323/35/59 324/3/59 325/44/59 326/45/59 

vn 5.55112e-017 -0 -1
f 326/45/60 325/44/60 324/3/60 323/35/60 

