o ocelot
usemtl mob_ocelot
s off

v -0.117126 0.74 0.502545
vt 0.0317272 -0.313456
vn 0 1 -0
v -0.117126 0.74 0.627545
vt 0.0317272 -0.375956
v -0.0546256 0.74 0.627545
vt 0.0473522 -0.375956
v -0.0546256 0.74 0.502545
vt 0.0473522 -0.313456
f 1/1/1 2/2/1 3/3/1 4/4/1

vt 1.03028 -0.376046
vn -1 0 -0
vt 1.00049 -0.376046
v -0.117126 0.6775 0.502545
vt 1.00049 -0.405836
v -0.117126 0.6775 0.627545
vt 1.03028 -0.405836
f 2/5/2 1/6/2 5/7/2 6/8/2

vt 0.0911482 0.623073
vn 0 0 -1
vt 0.0772588 0.623073
v -0.0546256 0.6775 0.502545
vt 0.0772588 0.595294
vt 0.0911482 0.595294
f 1/9/3 4/10/3 7/11/3 5/12/3

vt 0.0771038 -0.375968
vn 1 0 -0
vt 0.0472825 -0.375968
v -0.0546256 0.6775 0.627545
vt 0.0472825 -0.405789
vt 0.0771038 -0.405789
f 4/13/4 3/14/4 8/15/4 7/16/4

vt -0.953413 -0.375198
vn 0 0 1
vt -0.968011 -0.375198
vt -0.968011 -0.404395
vt -0.953413 -0.404395
f 3/17/5 2/18/5 6/19/5 8/20/5

vt -2.46063 -1.23031
vn 0 -1 -0
vt 2.46063 -1.23031
vt 2.46063 1.23031
vt -2.46063 1.23031
f 6/21/6 5/22/6 7/23/6 8/24/6

v 0.101624 0.4275 0.877545
vt 1.07802 1.1261
v 0.101624 0.5525 0.877545
vt 1.07802 1.1886
v -0.0858756 0.5525 0.877545
vt 1.03114 1.1886
v -0.0858756 0.4275 0.877545
vt 1.03114 1.1261
f 9/25/5 10/26/5 11/27/5 12/28/5

vt 0.0787715 0.188788
vt 0.0787715 0.126288
v 0.101624 0.4275 0.815045
vt 0.0943965 0.126288
v 0.101624 0.5525 0.815045
vt 0.0943965 0.188788
f 10/29/4 9/30/4 13/31/4 14/32/4

vt -1.87544 -0.77969
vt -1.92232 -0.77969
v -0.0858756 0.4275 0.815045
vt -1.92232 -0.81094
vt -1.87544 -0.81094
f 9/33/6 12/34/6 15/35/6 13/36/6

vt -0.970077 0.126164
vt -0.970077 0.186117
v -0.0858756 0.5525 0.815045
vt -0.985066 0.186117
vt -0.985066 0.126164
f 12/37/2 11/38/2 16/39/2 15/40/2

vt 0.0316865 0.187548
vt 0.0785615 0.187548
vt 0.0785615 0.218798
vt 0.0316865 0.218798
f 11/41/1 10/42/1 14/43/1 16/44/1

v 0.164124 0.6775 0.502545
vt 0.15675 1.99891
v -0.148376 0.6775 0.502545
vt 0.0786248 1.99891
v -0.148376 0.6775 0.815045
vt 0.0786248 1.84266
v 0.164124 0.6775 0.815045
vt 0.15675 1.84266
f 17/45/1 18/46/1 19/47/1 20/48/1

vt 1.31205 1.8428
vt 1.23393 1.8428
v 0.164124 0.4275 0.502545
vt 1.23393 1.7178
v -0.148376 0.4275 0.502545
vt 1.31205 1.7178
f 18/49/3 17/50/3 21/51/3 22/52/3

vt 0.000329215 -0.281797
vt 0.0784542 -0.281797
v 0.164124 0.4275 0.815045
vt 0.0784542 -0.156797
vt 0.000329215 -0.156797
f 17/53/4 20/54/4 23/55/4 21/56/4

vt -0.921915 -0.250126
vt -0.84379 -0.250126
v -0.148376 0.4275 0.815045
vt -0.84379 -0.125126
vt -0.921915 -0.125126
f 20/57/5 19/58/5 24/59/5 23/60/5

vt 2.07846 0.842752
vt 2.00034 0.842752
vt 2.00034 0.717752
vt 2.07846 0.717752
f 19/61/2 18/62/2 22/63/2 24/64/2

vt 0.156074 -0.156805
vt 0.234199 -0.156805
vt 0.234199 -0.000555012
vt 0.156074 -0.000555012
f 22/65/6 21/66/6 23/67/6 24/68/6

v -0.0233756 0.457373 -1.40237
vt 0.0943242 1.50154
vn 0 0.192522 -0.981293
v 0.0391244 0.457373 -1.40237
vt 0.108717 1.50154
v 0.0391244 0.396043 -1.4144
vt 0.108717 1.53033
v -0.0233756 0.396043 -1.4144
vt 0.0943242 1.53033
f 25/69/7 26/70/7 27/71/7 28/72/7

vt 0.109402 -0.747631
vn 0 0.981293 0.192522
vt 0.124416 -0.747631
v -0.0233756 0.361112 -0.911721
vt 0.124416 -0.507405
v 0.0391244 0.361112 -0.911721
vt 0.109402 -0.507405
f 26/73/8 25/74/8 29/75/8 30/76/8

vt 0.0627404 1.25209
vt 0.0781743 1.25204
v -0.0233756 0.299782 -0.923754
vt 0.0783613 1.49899
vt 0.0629273 1.49903
f 25/77/2 28/78/2 31/79/2 29/80/2

vt 0.0781296 -0.749914
vn 0 -0.981293 -0.192522
vt 0.0937546 -0.749914
v 0.0391244 0.299782 -0.923754
vt 0.0937546 -0.499914
vt 0.0781296 -0.499914
f 28/81/9 27/82/9 32/83/9 31/84/9

vt -0.906268 1.25264
vn 1 -0 -0
vt -0.890947 1.25247
vt -0.890242 1.4976
vt -0.905563 1.49777
f 27/85/10 26/86/10 30/87/10 32/88/10

vt 0.0784759 0.499634
vn 0 -0.192522 0.981293
vt 0.0936508 0.499634
vt 0.0936508 0.529984
vt 0.0784759 0.529984
f 30/89/11 29/90/11 31/91/11 32/92/11

v -0.0233756 0.364639 -0.961874
vt 0.0315319 0.500265
vn -0 -0.432086 -0.901833
v 0.0391244 0.364639 -0.961874
vt 0.0464916 0.500265
v 0.0391244 0.308275 -0.934869
vt 0.0464916 0.530184
v -0.0233756 0.308275 -0.934869
vt 0.0315319 0.530184
f 33/93/12 34/94/12 35/95/12 36/96/12

vt -0.95334 -1.75101
vn 0 0.901833 -0.432086
vt -0.937715 -1.75101
v -0.0233756 0.580682 -0.510958
vt -0.937715 -1.50101
v 0.0391244 0.580682 -0.510958
vt -0.95334 -1.50101
f 34/97/13 33/98/13 37/99/13 38/100/13

vt -0.999179 1.25219
vt -0.983908 1.25232
v -0.0233756 0.524318 -0.483953
vt -0.984427 1.49665
vt -0.999698 1.49652
f 33/101/2 36/102/2 39/103/2 37/104/2

vt 0.0155784 -0.748307
vn 0 -0.901833 0.432086
vt 0.0312034 -0.748307
v 0.0391244 0.524318 -0.483953
vt 0.0312034 -0.498307
vt 0.0155784 -0.498307
f 36/105/14 35/106/14 40/107/14 39/108/14

vt 0.0314273 1.25128
vn 1 0 0
vt 0.0467241 1.25141
vt 0.0462041 1.49616
vt 0.0309073 1.49603
f 35/109/15 34/110/15 38/111/15 40/112/15

vt 0.0164236 0.498629
vn 0 0.432086 0.901833
vt 0.0313973 0.498629
vt 0.0313973 0.528576
vt 0.0164236 0.528576
f 38/113/16 37/114/16 39/115/16 40/116/16

v 0.0178744 0.364014 -0.461367
vt 0.155624 -0.408392
vn 0 0.989526 -0.144356
v 0.0178744 0.382058 -0.337677
vt 0.155624 -0.470892
v 0.142874 0.382058 -0.337677
vt 0.186874 -0.470892
v 0.142874 0.364014 -0.461367
vt 0.186874 -0.408392
f 41/117/17 42/118/17 43/119/17 44/120/17

vt 0.155812 0.529586
vn -1 -0 -0
vt 0.125594 0.529586
v 0.0178744 -0.00705835 -0.407234
vt 0.125594 0.348277
v 0.0178744 0.0109862 -0.283543
vt 0.155812 0.348277
f 42/121/18 41/122/18 45/123/18 46/124/18

vt 1.24892 1.5267
vn 0 -0.144356 -0.989526
vt 1.21849 1.5267
v 0.142874 -0.00705835 -0.407234
vt 1.21849 1.34417
vt 1.24892 1.34417
f 41/125/19 44/126/19 47/127/19 45/128/19

vt -0.781196 0.531988
vt -0.812446 0.531988
v 0.142874 0.0109862 -0.283543
vt -0.812446 0.344488
vt -0.781196 0.344488
f 44/129/4 43/130/4 48/131/4 47/132/4

vt -0.81268 0.528451
vn 0 0.144356 0.989526
vt -0.843223 0.528451
vt -0.843223 0.345195
vt -0.81268 0.345195
f 43/133/20 42/134/20 46/135/20 48/136/20

vt 0.218241 -0.408619
vn 0 -0.989526 0.144356
vt 0.187878 -0.408619
vt 0.187878 -0.469343
vt 0.218241 -0.469343
f 46/137/21 45/138/21 47/139/21 48/140/21

v 0.0178744 0.629495 0.282231
vt 0.749169 0.93202
vn 0 0.0941083 -0.995562
v 0.142874 0.629495 0.282231
vt 0.718656 0.93202
v 0.142874 0.00726866 0.223413
vt 0.718656 0.626894
v 0.0178744 0.00726866 0.223413
vt 0.749169 0.626894
f 49/141/22 50/142/22 51/143/22 52/144/22

vt 0.656733 -0.000898816
vn 0 0.995562 0.0941083
v 0.0178744 0.617731 0.406676
vt 0.656733 -0.0619548
v 0.142874 0.617731 0.406676
vt 0.687261 -0.0619548
vt 0.687261 -0.000898812
f 49/145/23 53/146/23 54/147/23 50/148/23

vt 1.6566 1.93613
vt 1.62582 1.93613
vt 1.62582 1.62834
v 0.0178744 -0.00449488 0.347858
vt 1.6566 1.62834
f 53/149/2 49/150/2 52/151/2 55/152/2

vt -0.31218 -0.00116729
vn 0 -0.995562 -0.0941083
vt -0.31218 -0.0618067
vt -0.28186 -0.0618067
v 0.142874 -0.00449488 0.347858
vt -0.28186 -0.00116729
f 55/153/24 52/154/24 51/155/24 56/156/24

vt 0.718384 0.938339
vt 0.687134 0.938339
vt 0.687134 0.625839
vt 0.718384 0.625839
f 50/157/4 54/158/4 56/159/4 51/160/4

vt -0.311922 0.938855
vn 0 -0.0941083 0.995562
vt -0.343172 0.938855
vt -0.343172 0.626355
vt -0.311922 0.626355
f 54/161/25 53/162/25 55/163/25 56/164/25

v 0.132874 0.74 0.627545
vt 0.139965 0.626401
vn 0 1 0
v 0.132874 0.74 0.502545
vt 0.139965 0.679746
v 0.0703744 0.74 0.502545
vt 0.126629 0.679746
v 0.0703744 0.74 0.627545
vt 0.126629 0.626401
f 57/165/26 58/166/26 59/167/26 60/168/26

vt -0.828516 0.623814
vt -0.857778 0.623814
v 0.132874 0.6775 0.627545
vt -0.857778 0.594553
v 0.132874 0.6775 0.502545
vt -0.828516 0.594553
f 58/169/4 57/170/4 61/171/4 62/172/4

vt 1.14054 -0.374503
vt 1.12537 -0.374503
v 0.0703744 0.6775 0.627545
vt 1.12537 -0.404846
vt 1.14054 -0.404846
f 57/173/5 60/174/5 63/175/5 61/176/5

vt 1.12577 -0.376437
vt 1.09718 -0.376437
v 0.0703744 0.6775 0.502545
vt 1.09718 -0.405024
vt 1.12577 -0.405024
f 60/177/2 59/178/2 64/179/2 63/180/2

vt 0.186663 -0.376753
vn 0 -0 -1
vt 0.171594 -0.376753
vt 0.171594 -0.406891
vt 0.186663 -0.406891
f 59/181/27 58/182/27 62/183/27 64/184/27

f 62/21/6 61/22/6 63/23/6 64/24/6

v -0.127126 0.365688 -0.286948
v -0.127126 0.381355 -0.410962
v -0.127126 0.00931182 -0.457962
v -0.127126 -0.00635483 -0.333948
f 65/121/2 66/122/2 67/123/2 68/124/2

vt 0.157514 -0.408221
vn 0 0.992115 0.125333
vt 0.157514 -0.470721
v -0.00212556 0.365688 -0.286948
vt 0.188764 -0.470721
v -0.00212556 0.381355 -0.410962
vt 0.188764 -0.408221
f 66/185/28 65/186/28 69/187/28 70/188/28

vn 0 -0.125333 0.992115
v -0.00212556 -0.00635483 -0.333948
f 69/133/29 65/134/29 68/135/29 71/136/29

vn 0 -0.992115 -0.125333
v -0.00212556 0.00931182 -0.457962
f 68/137/30 67/138/30 72/139/30 71/140/30

vn 0 0.125333 -0.992115
f 66/125/31 70/126/31 72/127/31 67/128/31

f 70/129/4 69/130/4 71/131/4 72/132/4

v -0.127126 0.619434 0.22929
vn 0 0.997185 -0.0749787
v -0.127126 0.628807 0.353938
v -0.00212556 0.628807 0.353938
v -0.00212556 0.619434 0.22929
f 73/145/32 74/146/32 75/147/32 76/148/32

v -0.127126 -0.00380652 0.276151
v -0.127126 0.00556582 0.4008
f 74/149/18 73/150/18 77/151/18 78/152/18

vn 0 -0.0749787 -0.997185
v -0.00212556 -0.00380652 0.276151
f 73/141/33 76/142/33 79/143/33 77/144/33

v -0.00212556 0.00556582 0.4008
f 76/157/4 75/158/4 80/159/4 79/160/4

vn 0 0.0749787 0.997185
f 75/161/34 74/162/34 78/163/34 80/164/34

vn 0 -0.997185 0.0749787
f 78/153/35 77/154/35 79/155/35 80/156/35

v -0.117126 0.24 0.502545
vt 0.406604 -0.188515
vn 0 -2.78805e-013 1
v 0.132874 0.24 0.502545
vt 0.469104 -0.188515
v 0.132874 0.615 0.502545
vt 0.469104 -0.00101481
v -0.117126 0.615 0.502545
vt 0.406604 -0.00101481
f 81/189/36 82/190/36 83/191/36 84/192/36

vt -1.53214 0.81394
vn 0 -1 -2.78805e-013
vt -1.59464 0.81394
v -0.117126 0.24 -0.497455
vt -1.59464 0.31394
v 0.132874 0.24 -0.497455
vt -1.53214 0.31394
f 82/193/37 81/194/37 85/195/37 86/196/37

vt 0.406531 -0.187437
vt 0.312781 -0.187437
v -0.117126 0.615 -0.497455
vt 0.312781 -0.687437
vt 0.406531 -0.687437
f 81/197/2 84/198/2 87/199/2 85/200/2

vt -0.375321 -0.186655
vn 0 1 2.78805e-013
vt -0.437821 -0.186655
v 0.132874 0.615 -0.497455
vt -0.437821 -0.686655
vt -0.375321 -0.686655
f 84/201/38 83/202/38 88/203/38 87/204/38

vt 0.624521 -1.18774
vt 0.530771 -1.18774
vt 0.530771 -1.68774
vt 0.624521 -1.68774
f 83/205/4 82/206/4 86/207/4 88/208/4

vt -1.46956 -0.188677
vn 0 2.78805e-013 -1
vt -1.53206 -0.188677
vt -1.53206 -0.00117703
vt -1.46956 -0.00117703
f 86/209/39 85/210/39 87/211/39 88/212/39

