o villager
usemtl mob_villager
s off

v -0.0504426 1.6875 0.250496
vt 0 0
vn 9.16267e-015 1 9.46798e-015
v 0.0745574 1.6875 0.250496
vt 7.87402 -6.41186e-028
v 0.0745574 1.6875 0.125496
vt 7.87402 7.87402
v -0.0504426 1.6875 0.125496
vt 0 7.87402
f 1/1/1 2/2/1 3/3/1 4/4/1 

v -0.0504426 1.4375 0.125496
vn 9.16267e-015 -1 -1.06337e-014
v 0.0745574 1.4375 0.125496
v 0.0745574 1.4375 0.250496
v -0.0504426 1.4375 0.250496
f 5/1/2 6/2/2 7/3/2 8/4/2 

v -0.237943 2.125 0.125496
vt 1.13687e-013 39.3701
vn 0 0 1
v -0.237943 1.5 0.125496
vt 1.13687e-013 0
v 0.262057 1.5 0.125496
vt 31.4961 0
v 0.262057 2.125 0.125496
vt 31.4961 39.3701
f 9/5/3 10/6/3 11/7/3 12/8/3 

v 0.262057 2.125 0.125496
vn 1 0 1.38778e-016
v 0.262057 1.5 0.125496
v 0.262057 1.5 -0.374504
v 0.262057 2.125 -0.374504
f 13/5/4 14/6/4 15/7/4 16/8/4 

v 0.262057 2.125 -0.374504
vn -3.94129e-015 0 -1
v 0.262057 1.5 -0.374504
v -0.237943 1.5 -0.374504
v -0.237943 2.125 -0.374504
f 17/5/5 18/6/5 19/7/5 20/8/5 

v -0.237943 2.125 -0.374504
vn -1 0 3.67692e-014
v -0.237943 1.5 -0.374504
v -0.237943 1.5 0.125496
v -0.237943 2.125 0.125496
f 21/5/6 22/6/6 23/7/6 24/8/6 

v -0.237943 2.125 -0.374504
vt 7.21334e-028 31.4961
vn 3.52274e-015 1 -3.39784e-015
v -0.237943 2.125 0.125496
v 0.262057 2.125 0.125496
vt 31.4961 3.60667e-028
v 0.262057 2.125 -0.374504
vt 31.4961 31.4961
f 25/9/7 26/1/7 27/10/7 28/11/7 

v -0.237943 1.5 0.125496
vn 3.52274e-015 -1 3.42559e-015
v -0.237943 1.5 -0.374504
v 0.262057 1.5 -0.374504
v 0.262057 1.5 0.125496
f 29/9/8 30/1/8 31/10/8 32/11/8 

v -0.0504426 1.6875 0.125496
vt 0 15.748
vn -1 0 1.72085e-015
v -0.0504426 1.4375 0.125496
v -0.0504426 1.4375 0.250496
vt 7.87402 0
v -0.0504426 1.6875 0.250496
vt 7.87402 15.748
f 33/12/9 34/1/9 35/13/9 36/14/9 

v -0.0504426 1.6875 0.250496
v -0.0504426 1.4375 0.250496
v 0.0745574 1.4375 0.250496
v 0.0745574 1.6875 0.250496
f 37/12/3 38/1/3 39/13/3 40/14/3 

v 0.0745574 1.6875 0.250496
vn 1 0 4.30211e-015
v 0.0745574 1.4375 0.250496
v 0.0745574 1.4375 0.125496
v 0.0745574 1.6875 0.125496
f 41/12/10 42/1/10 43/13/10 44/14/10 

v 0.0745574 1.6875 0.125496
vn 3.91926e-015 0 -1
v 0.0745574 1.4375 0.125496
v -0.0504426 1.4375 0.125496
v -0.0504426 1.6875 0.125496
f 45/12/11 46/1/11 47/13/11 48/14/11 

v 0.0120574 1.75693e-016 -0.249504
vt 15.748 0
vn 1.38778e-016 -1 8.32667e-017
v 0.0120574 1.96509e-016 0.000495885
vt 15.748 15.748
v -0.237943 1.61815e-016 0.000495885
v -0.237943 1.40998e-016 -0.249504
f 49/15/12 50/16/12 51/12/12 52/1/12 

v -0.237943 0.75 -0.249504
vt 1.13687e-013 47.2441
vn -1 0 -7.32747e-015
v -0.237943 1.12799e-016 -0.249504
v -0.237943 1.12799e-016 0.000495885
v -0.237943 0.75 0.000495885
vt 15.748 47.2441
f 53/17/13 54/6/13 55/15/13 56/18/13 

v -0.237943 0.75 0.000495885
v -0.237943 1.12799e-016 0.000495885
v 0.0120574 1.12799e-016 0.000495885
v 0.0120574 0.75 0.000495885
f 57/17/3 58/6/3 59/15/3 60/18/3 

v 0.0120574 0.75 0.000495885
vn 1 0 -7.35523e-015
v 0.0120574 1.12799e-016 0.000495885
v 0.0120574 1.12799e-016 -0.249504
v 0.0120574 0.75 -0.249504
f 61/17/14 62/6/14 63/15/14 64/18/14 

v 0.0120574 0.75 -0.249504
vn -7.294e-015 0 -1
v 0.0120574 1.12799e-016 -0.249504
v -0.237943 1.12799e-016 -0.249504
v -0.237943 0.75 -0.249504
f 65/17/15 66/6/15 67/15/15 68/18/15 

v -0.237943 0.75 -0.249504
vt 1.13687e-013 15.748
vn 1.38778e-016 1 5.55112e-017
v -0.237943 0.75 0.000495885
v 0.0120574 0.75 0.000495885
v 0.0120574 0.75 -0.249504
f 69/19/16 70/6/16 71/15/16 72/16/16 

v 0.0120574 0.75 -0.249504
v 0.0120574 0.75 0.000495885
v 0.262057 0.75 0.000495885
v 0.262057 0.75 -0.249504
f 73/19/16 74/6/16 75/15/16 76/16/16 

v 0.262057 0 -0.249504
vt -1.13687e-013 0
vn 7.294e-015 0 1
v 0.262057 0.75 -0.249504
vt -1.13687e-013 47.2441
v 0.0120574 0.75 -0.249504
vt -15.748 47.2441
v 0.0120574 0 -0.249504
vt -15.748 0
f 77/20/17 78/21/17 79/22/17 80/23/17 

v 0.0120574 0.75 0.000495885
v 0.0120574 0 0.000495885
v 0.0120574 0 -0.249504
v 0.0120574 0.75 -0.249504
f 81/17/14 82/6/14 83/15/14 84/18/14 

v 0.0120574 0.75 0.000495885
v 0.0120574 0 0.000495885
v 0.262057 0 0.000495885
v 0.262057 0.75 0.000495885
f 85/17/3 86/6/3 87/15/3 88/18/3 

v 0.262057 0.75 -0.249504
v 0.262057 0 -0.249504
v 0.262057 0 0.000495885
v 0.262057 0.75 0.000495885
f 89/17/13 90/6/13 91/15/13 92/18/13 

v 0.262057 6.28941e-017 -0.249504
v 0.262057 8.37108e-017 0.000495885
v 0.0120574 4.90163e-017 0.000495885
v 0.0120574 2.81997e-017 -0.249504
f 93/15/12 94/16/12 95/12/12 96/1/12 

v -0.237943 1.5 0.0629959
vn 2.12746e-014 1 -6.10623e-016
v 0.262057 1.5 0.0629959
v 0.262057 1.5 -0.312004
vt 31.4961 23.622
v -0.237943 1.5 -0.312004
vt 1.13687e-013 23.622
f 97/6/18 98/7/18 99/24/18 100/25/18 

v -0.237943 0.75 -0.312004
vn -1.99424e-014 -1 2.56739e-016
v 0.262057 0.75 -0.312004
v 0.262057 0.75 0.0629959
v -0.237943 0.75 0.0629959
f 101/6/19 102/7/19 103/24/19 104/25/19 

v -0.237943 1.5 -0.312004
vt 0 47.2441
vn -1 2.0664e-014 1.91236e-014
v -0.237943 0.75 -0.312004
v -0.237943 0.75 0.0629959
vt 23.622 0
v -0.237943 1.5 0.0629959
vt 23.622 47.2441
f 105/26/20 106/1/20 107/27/20 108/28/20 

v 0.262057 1.5 0.0629959
vn 1 -2.18853e-014 -2.05669e-014
v 0.262057 0.75 0.0629959
v 0.262057 0.75 -0.312004
v 0.262057 1.5 -0.312004
f 109/26/21 110/1/21 111/27/21 112/28/21 

v -0.237943 1.5 0.0629959
v -0.237943 0.75 0.0629959
v 0.262057 0.75 0.0629959
v 0.262057 1.5 0.0629959
vt 31.4961 47.2441
f 113/26/3 114/1/3 115/7/3 116/29/3 

v 0.262057 1.5 -0.312004
vn -6.10623e-015 -2.18853e-014 -1
v 0.262057 0.75 -0.312004
v -0.237943 0.75 -0.312004
v -0.237943 1.5 -0.312004
f 117/26/22 118/1/22 119/7/22 120/29/22 

v -0.277661 1.4875 -0.355493
vt 31.4961 78.7402
vn 4.44089e-016 0 -1
v 0.317339 1.4875 -0.355493
vt 1.13687e-013 78.7402
v 0.317339 0 -0.355493
v -0.277661 0 -0.355493
f 121/30/23 122/31/23 123/6/23 124/7/23 

vt 23.622 78.7402
vn 1 0 -0
v 0.317339 1.4875 0.0907571
vt 0 78.7402
v 0.317339 0 0.0907571
f 122/32/24 125/33/24 126/1/24 123/27/24 

v -0.277661 1.4875 0.0907571
vn -1 0 -5.55112e-017
v -0.277661 1.4875 -0.355493
v -0.277661 0 -0.355493
v -0.277661 0 0.0907571
f 127/32/25 128/33/25 129/1/25 130/27/25 

vn 0 1 -0
v -0.277661 1.4875 0.0907571
f 128/25/26 131/6/26 125/7/26 122/24/26 

v -0.277661 0 0.0907571
f 125/30/3 131/31/3 132/6/3 126/7/3 

v 0.317339 0.972215 0.328257
vn -1.03935e-014 -0.5 -0.866025
v 0.317339 1.4875 0.0307571
vt 0 31.4961
v 0.614839 1.4875 0.0307571
vt -15.748 31.4961
v 0.614839 0.972215 0.328257
f 133/1/27 134/34/27 135/35/27 136/23/27 

v -0.575161 1.33875 -0.226885
vn -1 1.73882e-014 3.49732e-014
v -0.575161 0.823465 0.0706146
v -0.575161 0.972215 0.328257
v -0.575161 1.4875 0.0307571
vt 15.748 31.4961
f 137/34/28 138/1/28 139/15/28 140/36/28 

v -0.277661 1.4875 0.0307571
vn 1 -1.43628e-014 -2.97331e-014
v -0.277661 0.972215 0.328257
v -0.277661 0.823465 0.0706146
v -0.277661 1.33875 -0.226885
f 141/34/29 142/1/29 143/15/29 144/36/29 

v 0.614839 0.823465 0.0706146
vn 3.6678e-014 0.5 0.866025
v 0.614839 1.33875 -0.226885
v 0.317339 1.33875 -0.226885
v 0.317339 0.823465 0.0706146
f 145/1/30 146/34/30 147/35/30 148/23/30 

v 0.317339 0.823465 0.0706146
vn 3.25452e-014 0.866025 -0.5
v 0.317339 0.972215 0.328257
v 0.614839 0.972215 0.328257
vt -15.748 15.748
v 0.614839 0.823465 0.0706146
f 149/1/31 150/12/31 151/37/31 152/23/31 

v 0.317339 1.4875 0.0307571
vn -1.88467e-014 -0.866025 0.5
v 0.317339 1.33875 -0.226885
v 0.614839 1.33875 -0.226885
v 0.614839 1.4875 0.0307571
f 153/1/32 154/12/32 155/37/32 156/23/32 

v -0.277661 0.823465 0.0706146
vn -6.757e-014 -0.5 -0.866025
v -0.277661 1.08111 -0.0781354
v 0.317339 1.08111 -0.0781354
v 0.317339 0.823465 0.0706146
vt 31.4961 15.748
f 157/19/33 158/6/33 159/7/33 160/38/33 

v -0.277661 0.972215 0.328257
vn -2.01096e-014 -0.866025 0.5
v -0.277661 0.823465 0.0706146
v 0.317339 0.823465 0.0706146
v 0.317339 0.972215 0.328257
f 161/19/34 162/6/34 163/7/34 164/38/34 

v -0.277661 1.22986 0.179507
vn 1.84149e-014 0.5 0.866025
v -0.277661 0.972215 0.328257
v 0.317339 0.972215 0.328257
v 0.317339 1.22986 0.179507
f 165/19/35 166/6/35 167/7/35 168/38/35 

v -0.277661 1.08111 -0.0781354
vn -2.16348e-014 0.866025 -0.5
v -0.277661 1.22986 0.179507
v 0.317339 1.22986 0.179507
v 0.317339 1.08111 -0.0781354
f 169/19/36 170/6/36 171/7/36 172/38/36 

v -0.277661 0.972215 0.328257
vn -1 1.03522e-014 2.27864e-014
v -0.277661 1.22986 0.179507
v -0.277661 1.08111 -0.0781354
v -0.277661 0.823465 0.0706146
f 173/15/37 174/16/37 175/12/37 176/1/37 


v 0.317339 0.823465 0.0706146
vn 1 -1.02828e-014 -2.26662e-014
v 0.317339 1.08111 -0.0781354
v 0.317339 1.22986 0.179507
f 177/15/38 178/16/38 179/12/38 133/1/38 

v 0.317339 0.823465 0.0706146
vn 1 -1.73882e-014 -3.49732e-014
v 0.317339 1.33875 -0.226885
v 0.317339 1.4875 0.0307571
v 0.317339 0.972215 0.328257
f 180/1/39 181/34/39 182/35/39 183/23/39 

v 0.614839 0.972215 0.328257
vn -1 1.43628e-014 2.97331e-014
v 0.614839 1.4875 0.0307571
v 0.614839 1.33875 -0.226885
v 0.614839 0.823465 0.0706146
f 184/1/40 185/34/40 186/35/40 187/23/40 

v -0.575161 1.33875 -0.226885
vn 1.88467e-014 0.866025 -0.5
v -0.575161 1.4875 0.0307571
v -0.277661 1.4875 0.0307571
v -0.277661 1.33875 -0.226885
f 188/12/41 189/1/41 190/15/41 191/16/41 

v -0.575161 0.972215 0.328257
vn -3.25452e-014 -0.866025 0.5
v -0.575161 0.823465 0.0706146
v -0.277661 0.823465 0.0706146
v -0.277661 0.972215 0.328257
f 192/12/42 193/1/42 194/15/42 195/16/42 

v -0.277661 1.33875 -0.226885
vn -3.6678e-014 -0.5 -0.866025
v -0.277661 0.823465 0.0706146
v -0.575161 0.823465 0.0706146
v -0.575161 1.33875 -0.226885
f 196/34/43 197/1/43 198/15/43 199/36/43 

v -0.575161 1.4875 0.0307571
vn 1.03935e-014 0.5 0.866025
v -0.575161 0.972215 0.328257
v -0.277661 0.972215 0.328257
v -0.277661 1.4875 0.0307571
f 200/34/44 201/1/44 202/15/44 203/36/44 

