o wolf
usemtl mob_wolf
s off

usemtl mob_wolf
v 0.256151 0.9375 0.0594035
vt -0.327226 -0.219851
vn -3.64393e-015 1 -4.81274e-015
v 0.256151 0.9375 -0.315597
vt -0.327226 -0.404466
v -0.243849 0.9375 -0.315597
vt -0.204149 -0.404466
v -0.243849 0.9375 0.0594035
vt -0.204149 -0.219851
v -0.181349 0.9375 0.0594035
vt -0.219533 -0.219851
v -0.0563488 0.9375 0.0594035
vt -0.250303 -0.219851
v 0.0686512 0.9375 0.0594035
vt -0.281072 -0.219851
v 0.193651 0.9375 0.0594035
vt -0.311841 -0.219851
f 1/1/1 2/2/1 3/3/1 4/4/1 5/5/1 6/6/1 7/7/1 8/8/1

v 0.256151 0.5 0.0594035
vt 0.579254 -1.22037
vn 1 5.15651e-017 6.01593e-017
v 0.256151 0.5 -0.315597
vt 0.579254 -1.40498
vt 0.686947 -1.40498
vt 0.686947 -1.22037
f 9/9/2 10/10/2 2/11/2 1/12/2

vt -1.45394 -0.220456
vn 1.58468e-016 -1 7.39959e-015
v 0.193651 0.5 -0.315597
vt -1.46933 -0.405072
vt -1.45394 -0.405072
f 9/13/3 11/14/3 10/15/3

v 0.162401 0.5 -0.0330965
vt -1.47702 -0.265995
f 9/13/3 12/16/3 11/14/3

v 0.0374012 0.5 -0.0330965
vt -1.50779 -0.265995
f 9/13/3 13/17/3 12/16/3

v -0.0250988 0.5 -0.00309653
vt -1.52317 -0.251226
f 9/13/3 14/18/3 13/17/3

v -0.150099 0.5 -0.00309653
vt -1.55394 -0.251226
f 9/13/3 15/19/3 14/18/3

v -0.243849 0.5 0.0594035
vt -1.57702 -0.220456
f 16/20/3 15/19/3 9/13/3

v -0.243849 0.5 -0.315597
vt -1.57702 -0.405072
f 15/19/3 16/20/3 17/21/3

vt -1.67069 0.779407
vn -1 5.15651e-017 -6.01593e-017
vt -1.67069 0.594792
vt -1.563 0.594792
vt -1.563 0.779407
f 4/22/4 3/23/4 17/24/4 16/25/4

vt -0.314002 0.781761
vn 1.92028e-015 -2.0813e-015 -1
vt -0.329387 0.781761
v 0.193651 0.875 -0.315597
vt -0.329387 0.966376
v -0.181349 0.875 -0.315597
vt -0.421694 0.966376
v -0.181349 0.5 -0.315597
vt -0.421694 0.781761
vt -0.437079 0.781761
vt -0.437079 0.997146
vt -0.314002 0.997146
f 10/26/5 11/27/5 18/28/5 19/29/5 20/30/5 17/31/5 3/32/5 2/33/5

usemtl FrontColor
vt -27.5591 31.4961
vn 5.1737e-015 3.72988e-015 -1
vt -3.93701 31.4961
vt -3.93701 55.1181
vt -27.5591 55.1181
f 11/34/6 20/35/6 19/36/6 18/37/6

usemtl mob_wolf
v -0.150099 0.5 -0.128097
vt -1.55394 -0.312764
vt -1.56163 -0.405072
f 21/38/3 20/39/3 11/14/3

f 20/39/3 21/38/3 15/19/3

usemtl FrontColor
vt -13.7795 27.5591
vn 0 -1 -0
vt -5.90551 27.5591
vt -5.90551 35.4331
v -0.0250988 0.5 -0.128097
vt -13.7795 35.4331
f 14/40/7 15/41/7 21/42/7 22/43/7

usemtl mob_wolf
vt 0.031487 0.372441
vn -2.08462e-032 -1.80478e-015 1
v -0.150099 6.41186e-031 -0.00309653
vt 0.031487 0.126287
v -0.0250988 6.93889e-018 -0.00309653
vt 0.0622563 0.126287
vt 0.0622563 0.372441
f 15/44/8 23/45/8 24/46/8 14/47/8

vt -0.999073 0.37312
vn -1 -4.51195e-017 -2.90569e-014
v -0.150099 6.41186e-031 -0.128097
vt -0.999073 0.126966
vt -0.968304 0.126966
vt -0.968304 0.37312
f 21/48/9 25/49/9 23/50/9 15/51/9

vt -0.906799 -0.626937
vn 0 0 -1
v -0.0250988 6.41186e-031 -0.128097
vt -0.906799 -0.873091
vt -0.876029 -0.873091
vt -0.876029 -0.626937
f 22/52/10 26/53/10 25/54/10 21/55/10

vt 0.0623865 0.373123
vn 1 -2.621e-029 2.88765e-014
vt 0.0623865 0.126969
vt 0.0931557 0.126969
vt 0.0931557 0.373123
f 14/56/11 24/57/11 26/58/11 22/59/11

vt -0.906599 0.37536
vn 2.77556e-017 -1 2.77556e-017
vt -0.906599 0.436898
vt -0.937368 0.436898
vt -0.937368 0.37536
f 23/60/12 25/61/12 26/62/12 24/63/12

vt -1.52317 -0.312764
f 13/17/3 14/18/3 22/64/3

v 0.0374012 0.5 -0.158097
vt -1.50779 -0.327533
f 22/64/3 27/65/3 13/17/3

f 22/64/3 11/14/3 27/65/3

f 21/38/3 11/14/3 22/64/3

v 0.162401 0.5 -0.158097
vt -1.47702 -0.327533
f 27/65/3 11/14/3 28/66/3

f 28/66/3 11/14/3 12/16/3

vn 1 0 -0
v 0.162401 4.40609e-015 -0.0330965
v 0.162401 4.40609e-015 -0.158097
f 12/56/13 29/57/13 30/58/13 28/59/13

vn 3.2486e-015 -8.1215e-016 1
v 0.0374012 4.39915e-015 -0.0330965
f 13/44/14 31/45/14 29/46/14 12/47/14

vn -1 0 -3.60956e-016
v 0.0374012 4.39915e-015 -0.158097
f 27/48/15 32/49/15 31/50/15 13/51/15

vn -1.80478e-015 4.51195e-016 -1
f 28/52/16 30/53/16 32/54/16 27/55/16

vn 5.55112e-017 -1 1.01788e-032
f 31/60/17 32/61/17 30/62/17 29/63/17

usemtl FrontColor
vt -17.7165 37.3228
vt -25.5906 37.3228
vt -25.5906 29.4488
vt -17.7165 29.4488
f 27/67/7 28/68/7 12/69/7 13/70/7

usemtl mob_wolf
f 15/19/3 17/21/3 20/39/3

vt -1.62432 0.373526
vn 2.16573e-015 -1 -8.02124e-016
v -0.150099 0.5 -0.690597
vt -1.61662 0.18891
vt -1.53201 0.373526
f 20/71/18 33/72/18 11/73/18

v -0.181349 0.5 -0.878097
vt -1.62432 0.0966027
f 33/72/18 20/71/18 34/74/18

vt -0.717928 0.373723
vn -1 -5.1737e-015 -1.84488e-015
v -0.181349 0.875 -0.878097
vt -0.717928 0.0968004
vt -0.62562 0.0968004
vt -0.62562 0.373723
f 19/75/19 35/76/19 34/77/19 20/78/19

vt -0.43702 -0.627711
vn -9.42284e-015 1 4.89296e-015
v 0.193651 0.875 -0.878097
vt -0.43702 -0.904635
v 0.0686512 0.875 -0.878097
vt -0.40625 -0.904635
v -0.0563488 0.875 -0.878097
vt -0.375481 -0.904635
vt -0.344712 -0.904635
vt -0.344712 -0.627711
f 18/79/20 36/80/20 37/81/20 38/82/20 35/83/20 19/84/20

vt 0.469692 0.37428
vn 1 1.17311e-015 -2.30611e-015
v 0.193651 0.5 -0.878097
vt 0.469692 0.0973569
vt 0.561999 0.0973569
vt 0.561999 0.37428
f 11/85/21 39/86/21 36/87/21 18/88/21

v 0.162401 0.5 -0.650597
vt -1.5397 0.208603
vt -1.53201 0.0966027
f 40/89/18 39/90/18 11/73/18

v 0.162401 0.5 -0.775597
vt -1.5397 0.147064
f 41/91/18 39/90/18 40/89/18

v 0.0374012 0.5 -0.775597
vt -1.57047 0.147064
f 42/92/18 39/90/18 41/91/18

v -0.0250988 0.5 -0.815597
vt -1.58586 0.127372
f 43/93/18 39/90/18 42/92/18

v -0.150099 0.5 -0.815597
vt -1.61662 0.127372
f 44/94/18 39/90/18 43/93/18

f 44/94/18 34/74/18 39/90/18

f 34/74/18 44/94/18 33/72/18

v -0.150099 8.4599e-016 -0.815597
v -0.150099 8.4599e-016 -0.690597
f 44/48/15 45/49/15 46/50/15 33/51/15

vn -2.16573e-015 5.41434e-016 -1
v -0.0250988 8.52929e-016 -0.815597
f 43/52/22 47/53/22 45/54/22 44/55/22

v -0.0250988 0.5 -0.690597
v -0.0250988 8.4599e-016 -0.690597
f 48/56/13 49/57/13 47/58/13 43/59/13

vn 0 0 1
f 33/44/23 46/45/23 49/46/23 48/47/23

vn 2.77556e-017 -1 -2.77556e-017
f 46/60/24 45/61/24 47/62/24 49/63/24

vt -1.58586 0.18891
f 11/73/18 33/72/18 48/95/18

usemtl FrontColor
vt -5.90551 78.7402
vt -13.7795 78.7402
vt -13.7795 70.8661
vt -5.90551 70.8661
f 44/96/7 43/97/7 48/98/7 33/99/7

usemtl mob_wolf
f 43/93/18 42/92/18 48/95/18

v 0.0374012 0.5 -0.650597
vt -1.57047 0.208603
f 48/95/18 42/92/18 50/100/18

usemtl FrontColor
vt -17.7165 68.3465
vt -17.7165 76.2205
vt -25.5906 76.2205
vt -25.5906 68.3465
f 50/101/7 42/102/7 41/103/7 40/104/7

usemtl mob_wolf
vn -1 2.621e-029 -2.88765e-014
v 0.0374012 5.24514e-015 -0.775597
v 0.0374012 5.24514e-015 -0.650597
f 42/48/25 51/49/25 52/50/25 50/51/25

vn 4.33147e-015 0 -1
v 0.162401 5.24514e-015 -0.775597
f 41/52/26 53/53/26 51/54/26 42/55/26

v 0.162401 5.24514e-015 -0.650597
f 40/56/13 54/57/13 53/58/13 41/59/13

vn -3.60956e-015 -9.02389e-016 1
f 50/44/27 52/45/27 54/46/27 40/47/27

f 52/60/7 51/61/7 53/62/7 54/63/7

f 11/73/18 50/100/18 40/89/18

f 11/73/18 48/95/18 50/100/18

vt 0.469651 0.376086
vn 4.78741e-015 9.86612e-015 -1
vt 0.469651 0.560701
vt 0.50042 0.560701
vt 0.531189 0.560701
vt 0.561958 0.560701
vt 0.561958 0.376086
f 34/105/28 35/106/28 38/107/28 37/108/28 36/109/28 39/110/28

vt -0.765622 -0.626967
vn -2.89172e-015 0.866025 -0.5
v 0.0686512 0.625 -1.31111
vt -0.765622 -0.873121
v -0.0563488 0.625 -1.31111
vt -0.734852 -0.873121
vt -0.734852 -0.626967
f 37/111/29 55/112/29 56/113/29 38/114/29

v 0.0686512 0.766747 -0.815597
vt 0.203018 -0.625458
vn 1 2.15596e-015 -9.58196e-016
v 0.0686512 0.516747 -1.24861
vt 0.203018 -0.871611
vt 0.233787 -0.871611
vt 0.233787 -0.625458
f 57/115/30 58/116/30 55/117/30 37/118/30

v -0.0563488 0.766747 -0.815597
vt 0.171265 -0.625478
vn 2.6029e-015 -0.866025 0.5
v -0.0563488 0.516747 -1.24861
vt 0.171265 -0.871632
vt 0.202034 -0.871632
vt 0.202034 -0.625478
f 59/119/31 60/120/31 58/121/31 57/122/31

vt -0.858606 0.37223
vn -1 -1.38501e-014 9.03835e-015
vt -0.858606 0.126075
vt -0.827836 0.126075
vt -0.827836 0.37223
f 38/123/32 56/124/32 60/125/32 59/126/32

vt -0.765998 0.374474
vn 8.21018e-017 -0.5 -0.866025
vt -0.765998 0.436013
vt -0.796767 0.436013
vt -0.796767 0.374474
f 60/127/33 56/128/33 55/129/33 58/130/33

vt 0.561421 0.999603
vn 7.35794e-015 -4.3671e-015 1
vt 0.546036 0.999603
v 0.193651 0.90625 0.0594035
vt 0.546036 0.984219
v 0.0686512 0.90625 0.0594035
vt 0.515267 0.984219
vt 0.515267 0.999603
vt 0.484497 0.999603
v -0.0563488 0.90625 0.0594035
vt 0.484497 0.984219
v -0.181349 0.90625 0.0594035
vt 0.453728 0.984219
vt 0.453728 0.999603
vt 0.438344 0.999603
vt 0.438344 0.784219
vt 0.561421 0.784219
f 1/131/34 8/132/34 61/133/34 62/134/34 7/135/34 6/136/34 63/137/34 64/138/34 5/139/34 4/140/34 16/141/34 9/142/34

vt 0.312377 0.484858
v 0.193651 1.03125 0.0594035
vt 0.312377 0.531012
v 0.193651 1.03125 0.121903
vt 0.296993 0.531012
v 0.193651 0.90625 0.121903
vt 0.296993 0.469474
vt 0.312377 0.469474
f 8/143/13 65/144/13 66/145/13 67/146/13 61/147/13

vt -0.687391 0.529592
vn -6.85816e-015 9.62549e-015 -1
vt -0.687391 0.483438
vt -0.656622 0.483438
v 0.0686512 1.03125 0.0594035
vt -0.656622 0.529592
f 65/148/35 8/149/35 7/150/35 68/151/35

usemtl FrontColor
vt 27.5591 59.0551
vn 4.8729e-015 2.09354e-014 1
vt 19.685 59.0551
vt 19.685 57.0866
vt 27.5591 57.0866
f 8/152/36 7/153/36 62/154/36 61/155/36

usemtl mob_wolf
vt -0.750363 0.530294
vn -1 0 -0
vt -0.750363 0.48414
vt -0.750363 0.468756
v 0.0686512 0.90625 0.121903
vt -0.734978 0.468756
v 0.0686512 1.03125 0.121903
vt -0.734978 0.530294
f 68/156/37 7/157/37 62/158/37 69/159/37 70/160/37

v 0.193651 0.90625 0.246903
vt 0.15549 0.876161
vn 1.33744e-014 1 4.53773e-015
vt 0.15549 0.937699
vt 0.124721 0.937699
vt 0.124721 0.968469
vt 0.15549 0.968469
v 0.193651 0.90625 -0.00309653
vt 0.15549 0.999238
v -0.181349 0.90625 -0.00309653
vt 0.0631828 0.999238
vt 0.0631828 0.968469
vt 0.093952 0.968469
v -0.0563488 0.90625 0.121903
vt 0.093952 0.937699
v -0.181349 0.90625 0.121903
vt 0.0631828 0.937699
v -0.181349 0.90625 0.246903
vt 0.0631828 0.876161
f 71/161/38 67/162/38 69/163/38 62/164/38 61/165/38 72/166/38 73/167/38 64/168/38 63/169/38 74/170/38 75/171/38 76/172/38

vt 0.157239 0.873367
vn 1 3.57409e-015 -1.21216e-015
v 0.193651 0.53125 0.246903
vt 0.157239 0.688752
v 0.193651 0.53125 -0.00309653
vt 0.218777 0.688752
vt 0.218777 0.873367
vt 0.203393 0.873367
vt 0.188008 0.873367
f 71/173/39 77/174/39 78/175/39 72/176/39 61/177/39 67/178/39

v -0.181349 0.53125 0.246903
vt 0.0633055 0.689352
vn 1.01068e-015 -2.62513e-016 1
v -0.0875988 0.53125 0.246903
vt 0.0863824 0.689352
v -0.0875988 0.71875 0.246903
vt 0.0863824 0.781659
v 0.0999012 0.71875 0.246903
vt 0.132536 0.781659
v 0.0999012 0.53125 0.246903
vt 0.132536 0.689352
vt 0.155613 0.689352
vt 0.155613 0.873967
vt 0.0633055 0.873967
f 79/179/40 80/180/40 81/181/40 82/182/40 83/183/40 77/184/40 71/185/40 76/186/40

vt 0.156699 0.968261
vn 2.139e-016 -1 -3.60956e-016
v -0.181349 0.53125 -0.00309653
vt 0.156699 0.845185
vt 0.249006 0.845185
vt 0.249006 0.968261
vt 0.225929 0.968261
vt 0.179775 0.968261
f 79/187/41 84/188/41 78/189/41 77/190/41 83/191/41 80/192/41

vt -0.999696 0.873442
vn -1 -1.19645e-015 5.22578e-016
vt -0.999696 0.688827
vt -0.938157 0.688827
vt -0.938157 0.873442
vt -0.968926 0.873442
vt -0.984311 0.873442
f 73/193/42 84/194/42 79/195/42 76/196/42 75/197/42 64/198/42

v -0.181349 1.03125 0.0594035
vn -1 2.88765e-017 1.15506e-016
v -0.181349 1.03125 0.121903
f 85/156/43 5/157/43 64/158/43 75/159/43 86/160/43

v -0.0563488 1.03125 0.0594035
vn -2.34621e-015 5.22183e-014 -1
f 87/148/44 6/149/44 5/150/44 85/151/44

v -0.0563488 1.03125 0.121903
f 6/143/13 87/144/13 88/145/13 74/146/13 63/147/13

vt 0.266263 0.563395
vn 0 1 -0
vt 0.266263 0.532626
vt 0.297032 0.532626
vt 0.297032 0.563395
f 85/199/45 86/200/45 88/201/45 87/202/45

vt 0.265976 0.531122
vt 0.265976 0.469583
vt 0.296746 0.469583
vt 0.296746 0.531122
f 86/203/23 75/204/23 74/205/23 88/206/23

usemtl FrontColor
vt 3.93701 23.622
vt 3.93701 19.685
vt 11.811 19.685
vt 11.811 23.622
f 64/207/45 75/208/45 74/209/45 63/210/45

vt 11.811 59.0551
vn 2.34621e-015 1.56655e-013 1
vt 3.93701 59.0551
vt 3.93701 57.0866
vt 11.811 57.0866
f 6/211/46 5/212/46 64/213/46 63/214/46

usemtl mob_wolf
v -0.0875988 0.53125 0.434403
vt -0.844338 -0.434115
vn 9.62549e-016 -1 -4.81274e-016
vt -0.844338 -0.341808
vt -0.890491 -0.341808
v 0.0999012 0.53125 0.434403
vt -0.890491 -0.434115
f 89/215/47 80/216/47 83/217/47 90/218/47

v -0.0875988 0.71875 0.434403
vt -0.937441 0.56123
vn -1 -4.96314e-015 -4.66234e-015
vt -0.983595 0.56123
vt -0.983595 0.468922
vt -0.937441 0.468922
f 91/219/48 81/220/48 80/221/48 89/222/48

vt 0.0629536 0.656542
vn -4.84868e-033 1 4.81274e-016
vt 0.0629536 0.564234
v 0.0999012 0.71875 0.434403
vt 0.109107 0.564234
vt 0.109107 0.656542
f 81/223/49 91/224/49 92/225/49 82/226/49

vt 0.062576 0.562007
vt 0.062576 0.469699
vt 0.10873 0.469699
vt 0.10873 0.562007
f 91/227/23 89/228/23 90/229/23 92/230/23

vt 0.109566 0.470087
vn 1 -6.01593e-017 6.01593e-017
vt 0.155719 0.470087
vt 0.155719 0.562395
vt 0.109566 0.562395
f 90/231/50 83/232/50 82/233/50 92/234/50

usemtl FrontColor
vt 9.84252 33.4646
vn -2.40637e-016 -2.40637e-016 1
vt 21.6535 33.4646
vt 21.6535 45.2756
vt 9.84252 45.2756
f 80/235/51 83/236/51 82/237/51 81/238/51

vt 27.5591 19.685
vt 27.5591 23.622
vt 19.685 23.622
vt 19.685 19.685
f 67/239/45 61/240/45 62/241/45 69/242/45

usemtl mob_wolf
f 70/203/23 69/204/23 67/205/23 66/206/23

f 68/199/45 70/200/45 66/201/45 65/202/45

