o wolf
usemtl mob_wolf
s off


v -0.181349 1.03125 0.0594035
vt 0 3.93701
vn 0 1 -0
v -0.181349 1.03125 0.121903
vt 0 0
v -0.0563488 1.03125 0.121903
vt 7.87402 0
v -0.0563488 1.03125 0.0594035
vt 7.87402 3.93701
f 1/1/1 2/2/1 3/3/1 4/4/1 

v -0.181349 0.90625 0.246903
vt 0 23.622
vn 0 0 1
v -0.181349 0.53125 0.246903
v 0.193651 0.53125 0.246903
vt 23.622 0
v 0.193651 0.90625 0.246903
vt 23.622 23.622
f 5/5/2 6/2/2 7/6/2 8/7/2 

v 0.0999012 0.71875 0.434403
vt 0 11.811
vn 1 1.05301e-016 1.11022e-016
v 0.0999012 0.53125 0.434403
v 0.0999012 0.53125 0.184403
vt 15.748 0
v 0.0999012 0.71875 0.184403
vt 15.748 11.811
f 9/8/3 10/2/3 11/9/3 12/10/3 

v 0.0999012 0.71875 0.184403
vn 1.92346e-014 1.05301e-016 -1
v 0.0999012 0.53125 0.184403
v -0.0875988 0.53125 0.184403
vt 11.811 0
v -0.0875988 0.71875 0.184403
vt 11.811 11.811
f 13/8/4 14/2/4 15/11/4 16/12/4 

v -0.0875988 0.71875 0.184403
vt 0 15.748
vn 6.12323e-017 1 1.66533e-016
v -0.0875988 0.71875 0.434403
v 0.0999012 0.71875 0.434403
v 0.0999012 0.71875 0.184403
vt 11.811 15.748
f 17/13/5 18/2/5 19/11/5 20/14/5 

v -0.0875988 0.53125 0.434403
vn 6.12323e-017 -1 -1.44499e-016
v -0.0875988 0.53125 0.184403
v 0.0999012 0.53125 0.184403
v 0.0999012 0.53125 0.434403
f 21/13/6 22/2/6 23/11/6 24/14/6 

v -0.0875988 0.71875 0.184403
vn -1 2.27766e-016 1.17148e-032
v -0.0875988 0.53125 0.184403
v -0.0875988 0.53125 0.434403
v -0.0875988 0.71875 0.434403
f 25/8/7 26/2/7 27/9/7 28/10/7 

vn 1 0 6.12323e-017
v 0.193651 0.53125 -0.00309653
v 0.193651 0.90625 -0.00309653
vt 15.748 23.622
f 8/5/8 7/2/8 29/9/8 30/15/8 

v -0.181349 0.90625 -0.00309653
vn -1 0 1.249e-016
v -0.181349 0.53125 -0.00309653
v -0.181349 0.53125 0.246903
v -0.181349 0.90625 0.246903
f 31/5/9 32/2/9 33/9/9 34/15/9 

v 0.193651 0.90625 -0.00309653
vn -1.07275e-014 0 -1
v 0.193651 0.53125 -0.00309653
v -0.181349 0.53125 -0.00309653
v -0.181349 0.90625 -0.00309653
f 35/5/10 36/2/10 37/6/10 38/7/10 

v -0.181349 0.90625 -0.00309653
vn 2.12746e-014 1 1.11022e-016
v -0.181349 0.90625 0.246903
v 0.193651 0.90625 0.246903
v 0.193651 0.90625 -0.00309653
vt 23.622 15.748
f 39/13/11 40/2/11 41/6/11 42/16/11 

v -0.181349 0.53125 0.246903
vn 6.12323e-017 -1 -6.245e-016
v -0.181349 0.53125 -0.00309653
v 0.193651 0.53125 -0.00309653
v 0.193651 0.53125 0.246903
f 43/13/12 44/2/12 45/6/12 46/16/12 

vt 0 7.87402
v -0.181349 0.90625 0.121903
v -0.0563488 0.90625 0.121903
vt 7.87402 7.87402
f 2/17/2 47/2/2 48/3/2 3/18/2 

v -0.0875988 0.71875 0.434403
v -0.0875988 0.53125 0.434403
v 0.0999012 0.53125 0.434403
v 0.0999012 0.71875 0.434403
f 49/8/2 50/2/2 51/11/2 52/12/2 

v -0.0563488 0.90625 0.0594035
vt 3.93701 0
vn 1 0 -0
vt 3.93701 7.87402
f 53/19/13 4/20/13 3/17/13 48/2/13 

v -0.181349 0.90625 0.0594035
f 54/19/13 1/20/13 2/17/13 47/2/13 


f 54/1/1 47/2/1 48/3/1 53/4/1 

v -0.0563488 1.03125 0.0594035
vn 1.94289e-016 0 -1
v -0.0563488 0.90625 0.0594035
v -0.181349 0.90625 0.0594035
v -0.181349 1.03125 0.0594035
f 55/17/14 56/2/14 57/3/14 58/18/14 

v 0.193651 1.03125 0.0594035
v 0.193651 0.90625 0.0594035
v 0.0686512 0.90625 0.0594035
v 0.0686512 1.03125 0.0594035
f 59/17/14 60/2/14 61/3/14 62/18/14 

v 0.0686512 0.90625 0.0594035
v 0.0686512 0.90625 0.121903
v 0.193651 0.90625 0.121903
v 0.193651 0.90625 0.0594035
f 63/1/1 64/2/1 65/3/1 66/4/1 


v 0.0686512 1.03125 0.0594035
v 0.0686512 1.03125 0.121903
f 63/19/13 67/20/13 68/17/13 64/2/13 


v 0.193651 1.03125 0.0594035
v 0.193651 1.03125 0.121903
f 66/19/13 69/20/13 70/17/13 65/2/13 

f 68/17/2 64/2/2 65/3/2 70/18/2

f 67/1/1 68/2/1 70/3/1 69/4/1

v 0.0374012 0.5 -0.128097
vt 0 31.4961
vn -1 0 -1.83697e-016
v 0.0374012 4.39915e-015 -0.128097
v 0.0374012 4.39915e-015 -0.00309653
v 0.0374012 0.5 -0.00309653
vt 7.87402 31.4961
f 71/21/15 72/2/15 73/3/15 74/22/15 

v 0.0374012 0.5 -0.00309653
v 0.0374012 4.39915e-015 -0.00309653
v 0.162401 4.39915e-015 -0.00309653
v 0.162401 0.5 -0.00309653
f 75/21/2 76/2/2 77/3/2 78/22/2 

vn 1 0 5.55112e-017
v 0.162401 4.39915e-015 -0.128097
v 0.162401 0.5 -0.128097
f 78/21/16 77/2/16 79/3/16 80/22/16 

v 0.162401 0.5 -0.128097
vn 8.32667e-017 0 -1
v 0.162401 4.39915e-015 -0.128097
v 0.0374012 4.39915e-015 -0.128097
v 0.0374012 0.5 -0.128097
f 81/21/17 82/2/17 83/3/17 84/22/17 

v 0.0374012 0.5 -0.128097
vn 5.55112e-017 1 6.12323e-017
v 0.162401 0.5 -0.00309653
v 0.162401 0.5 -0.128097
f 85/17/18 75/2/18 86/3/18 87/18/18 

v 0.0374012 4.39915e-015 -0.00309653
vn 5.55112e-017 -1 3.08149e-033
v 0.0374012 4.39915e-015 -0.128097
v 0.162401 4.40609e-015 -0.128097
v 0.162401 4.40609e-015 -0.00309653
f 88/17/19 89/2/19 90/3/19 91/18/19 

v 0.0374012 0.5 -0.815597
v 0.0374012 5.24514e-015 -0.815597
v 0.0374012 5.24514e-015 -0.690597
v 0.0374012 0.5 -0.690597
f 92/21/15 93/2/15 94/3/15 95/22/15 

v 0.0374012 0.5 -0.690597
v 0.0374012 5.24514e-015 -0.690597
v 0.162401 5.24514e-015 -0.690597
v 0.162401 0.5 -0.690597
f 96/21/2 97/2/2 98/3/2 99/22/2 

v 0.162401 5.24514e-015 -0.815597
v 0.162401 0.5 -0.815597
f 99/21/16 98/2/16 100/3/16 101/22/16 

v 0.162401 0.5 -0.815597
v 0.162401 5.24514e-015 -0.815597
v 0.0374012 5.24514e-015 -0.815597
v 0.0374012 0.5 -0.815597
f 102/21/17 103/2/17 104/3/17 105/22/17 

v 0.0374012 0.5 -0.815597
v 0.0374012 0.5 -0.690597
v 0.162401 0.5 -0.690597
v 0.162401 0.5 -0.815597
f 106/17/18 107/2/18 108/3/18 109/18/18 

v 0.0374012 5.24514e-015 -0.690597
v 0.0374012 5.24514e-015 -0.815597
v 0.162401 5.25208e-015 -0.815597
v 0.162401 5.25208e-015 -0.690597
f 110/17/19 111/2/19 112/3/19 113/18/19 

v -0.181349 0.875 -0.315597
vt 0 35.4331
vn -1 -5.16254e-015 -1.83187e-015
v -0.181349 0.875 -0.878097
v -0.181349 0.5 -0.878097
v -0.181349 0.5 -0.315597
vt 23.622 35.4331
f 114/23/20 115/2/20 116/6/20 117/24/20 

v 0.193651 0.5 -0.315597
vn 1 -5.55112e-017 -4.70457e-015
v 0.193651 0.5 -0.878097
v 0.193651 0.875 -0.878097
v 0.193651 0.875 -0.315597
f 118/23/21 119/2/21 120/6/21 121/24/21 

v -0.181349 0.5 -0.878097
vn -6.02296e-015 -9.05957e-031 -1
v -0.181349 0.875 -0.878097
v 0.193651 0.5 -0.878097
f 122/5/22 123/2/22 120/6/22 124/7/22 

v -0.181349 0.5 -0.315597
vn 6.12323e-017 -1 -1.83187e-015
v -0.181349 0.5 -0.878097
v 0.193651 0.5 -0.878097
v 0.193651 0.5 -0.315597
f 125/23/23 126/2/23 127/6/23 128/24/23 

v 0.193651 0.875 -0.315597
vn 8.04912e-016 1 2.2482e-015
v 0.193651 0.875 -0.878097
v -0.181349 0.875 -0.878097
v -0.181349 0.875 -0.315597
f 129/23/24 130/2/24 131/6/24 132/24/24 

v -0.243849 0.5 0.0594035
vn 6.12323e-017 -1 4.96825e-015
v -0.243849 0.5 -0.315597
v 0.256151 0.5 -0.315597
vt 31.4961 0
v 0.256151 0.5 0.0594035
vt 31.4961 23.622
f 133/5/25 134/2/25 135/25/25 136/26/25 

v 0.256151 0.5 0.0594035
vn 1 -4.14585e-033 6.12323e-017
v 0.256151 0.5 -0.315597
v 0.256151 0.9375 -0.315597
vt 27.5591 0
v 0.256151 0.9375 0.0594035
vt 27.5591 23.622
f 137/5/26 138/2/26 139/27/26 140/28/26 

v -0.243849 0.5 -0.315597
vt 0 27.5591
vn 4.71845e-016 -9.9365e-015 -1
v -0.243849 0.9375 -0.315597
v 0.256151 0.9375 -0.315597
v 0.256151 0.5 -0.315597
vt 31.4961 27.5591
f 141/29/27 142/2/27 143/25/27 144/30/27 

v -0.243849 0.9375 0.0594035
v -0.243849 0.5 0.0594035
v 0.256151 0.5 0.0594035
v 0.256151 0.9375 0.0594035
f 145/29/2 146/2/2 147/25/2 148/30/2 

v -0.243849 0.9375 0.0594035
vn -1 -2.55521e-016 -6.12323e-017
v -0.243849 0.9375 -0.315597
v -0.243849 0.5 -0.315597
v -0.243849 0.5 0.0594035
f 149/5/28 150/2/28 151/27/28 152/28/28 

v 0.256151 0.9375 0.0594035
vn -3.66946e-015 1 -4.96825e-015
v 0.256151 0.9375 -0.315597
v -0.243849 0.9375 -0.315597
v -0.243849 0.9375 0.0594035
f 153/5/29 154/2/29 155/25/29 156/26/29 

v -0.150099 0.5 -0.128097
v -0.150099 6.41186e-031 -0.128097
v -0.150099 6.41186e-031 -0.00309653
v -0.150099 0.5 -0.00309653
f 157/21/15 158/2/15 159/3/15 160/22/15 

v -0.0250988 6.41186e-031 -0.00309653
v -0.0250988 0.5 -0.00309653
f 160/21/2 159/2/2 161/3/2 162/22/2 

v -0.0250988 6.41186e-031 -0.128097
v -0.0250988 0.5 -0.128097
f 162/21/16 161/2/16 163/3/16 164/22/16 

v -0.0250988 0.5 -0.128097
v -0.0250988 6.41186e-031 -0.128097
v -0.150099 6.41186e-031 -0.128097
v -0.150099 0.5 -0.128097
f 165/21/17 166/2/17 167/3/17 168/22/17 

v -0.150099 0.5 -0.128097
v -0.150099 0.5 -0.00309653
v -0.0250988 0.5 -0.00309653
v -0.0250988 0.5 -0.128097
f 169/17/18 170/2/18 171/3/18 172/18/18 

v -0.150099 6.41186e-031 -0.00309653
v -0.150099 6.41186e-031 -0.128097
v -0.0250988 6.93889e-018 -0.128097
v -0.0250988 6.93889e-018 -0.00309653
f 173/17/19 174/2/19 175/3/19 176/18/19 

v -0.0563488 0.766747 -0.815597
vn 1.9989e-015 -0.866025 0.5
v -0.0563488 0.516747 -1.24861
v 0.0686512 0.516747 -1.24861
v 0.0686512 0.766747 -0.815597
f 177/21/30 178/2/30 179/3/30 180/22/30 

v -0.0563488 0.875 -0.878097
vn -1 -1.3872e-014 9.04392e-015
v -0.0563488 0.625 -1.31111
v -0.0563488 0.516747 -1.24861
v -0.0563488 0.766747 -0.815597
f 181/21/31 182/2/31 183/3/31 184/22/31 

v 0.0686512 0.766747 -0.815597
vn 1 2.16444e-015 -9.7053e-016
v 0.0686512 0.516747 -1.24861
v 0.0686512 0.625 -1.31111
v 0.0686512 0.875 -0.878097
f 185/21/32 186/2/32 187/3/32 188/22/32 

v 0.0686512 0.875 -0.878097
vn -2.39536e-014 0.866025 -0.5
v 0.0686512 0.625 -1.31111
v -0.0563488 0.625 -1.31111
v -0.0563488 0.875 -0.878097
f 189/21/33 190/2/33 191/3/33 192/22/33 

v -0.0563488 0.875 -0.878097
vn -6.02537e-016 0.5 0.866025
v -0.0563488 0.766747 -0.815597
v 0.0686512 0.766747 -0.815597
v 0.0686512 0.875 -0.878097
f 193/17/34 194/2/34 195/3/34 196/18/34 

v -0.0563488 0.516747 -1.24861
vn -1.19108e-016 -0.5 -0.866025
v -0.0563488 0.625 -1.31111
v 0.0686512 0.625 -1.31111
v 0.0686512 0.516747 -1.24861
f 197/17/35 198/2/35 199/3/35 200/18/35 

v -0.150099 0.5 -0.815597
v -0.150099 8.4599e-016 -0.815597
v -0.150099 8.4599e-016 -0.690597
v -0.150099 0.5 -0.690597
f 201/21/15 202/2/15 203/3/15 204/22/15 

v -0.0250988 8.4599e-016 -0.690597
v -0.0250988 0.5 -0.690597
f 204/21/2 203/2/2 205/3/2 206/22/2 

v -0.0250988 8.4599e-016 -0.815597
v -0.0250988 0.5 -0.815597
f 206/21/16 205/2/16 207/3/16 208/22/16 

v -0.0250988 0.5 -0.815597
v -0.0250988 8.4599e-016 -0.815597
v -0.150099 8.4599e-016 -0.815597
v -0.150099 0.5 -0.815597
f 209/21/17 210/2/17 211/3/17 212/22/17 

v -0.150099 0.5 -0.815597
v -0.150099 0.5 -0.690597
v -0.0250988 0.5 -0.690597
v -0.0250988 0.5 -0.815597
f 213/17/18 214/2/18 215/3/18 216/18/18 

v -0.150099 8.4599e-016 -0.690597
v -0.150099 8.4599e-016 -0.815597
v -0.0250988 8.52929e-016 -0.815597
v -0.0250988 8.52929e-016 -0.690597
f 217/17/19 218/2/19 219/3/19 220/18/19 

